<svg width="451" height="339" viewBox="0 0 451 339" fill="none" xmlns="http://www.w3.org/2000/svg">
<path d="M113.992 214.292C107.359 214.292 103.201 209.606 103.201 202.544C103.201 195.548 107.524 190.796 114.223 190.796C119.338 190.796 123.067 193.766 123.925 198.551H120.889C119.998 195.35 117.556 193.436 114.091 193.436C109.24 193.436 106.138 197.198 106.138 202.544C106.138 207.857 109.108 211.652 113.959 211.652C117.523 211.652 119.998 209.771 120.856 206.537H123.892C123.034 211.322 119.206 214.292 113.992 214.292ZM134.718 214.292C129.801 214.292 126.369 210.794 126.369 205.679C126.369 200.564 129.801 197.066 134.718 197.066C139.635 197.066 143.067 200.564 143.067 205.679C143.067 210.794 139.635 214.292 134.718 214.292ZM134.718 211.883C138.051 211.883 140.295 209.276 140.295 205.679C140.295 202.082 138.051 199.475 134.718 199.475C131.385 199.475 129.141 202.082 129.141 205.679C129.141 209.276 131.385 211.883 134.718 211.883ZM154.42 197.066C158.215 197.066 161.218 199.145 161.218 204.722V214.094H158.512V204.887C158.512 201.389 156.895 199.541 153.958 199.541C150.79 199.541 148.876 201.884 148.876 205.679V214.094H146.17V197.264H148.513L148.876 199.541C149.866 198.254 151.582 197.066 154.42 197.066ZM172.918 197.066C176.713 197.066 179.716 199.145 179.716 204.722V214.094H177.01V204.887C177.01 201.389 175.393 199.541 172.456 199.541C169.288 199.541 167.374 201.884 167.374 205.679V214.094H164.668V197.264H167.011L167.374 199.541C168.364 198.254 170.08 197.066 172.918 197.066ZM190.728 214.292C185.679 214.292 182.379 210.827 182.379 205.679C182.379 200.564 185.613 197.066 190.365 197.066C195.117 197.066 198.219 200.069 198.351 205.052C198.351 205.415 198.318 205.811 198.285 206.207H185.217V206.438C185.316 209.639 187.329 211.883 190.53 211.883C192.906 211.883 194.754 210.629 195.315 208.451H198.054C197.394 211.817 194.622 214.292 190.728 214.292ZM185.382 203.963H195.447C195.183 201.059 193.203 199.442 190.398 199.442C187.923 199.442 185.646 201.224 185.382 203.963ZM208.995 214.292C204.078 214.292 200.844 210.959 200.844 205.712C200.844 200.564 204.177 197.066 209.061 197.066C213.186 197.066 215.793 199.376 216.486 203.072H213.648C213.153 200.828 211.503 199.475 209.028 199.475C205.794 199.475 203.616 202.049 203.616 205.712C203.616 209.375 205.794 211.883 209.028 211.883C211.437 211.883 213.087 210.497 213.615 208.352H216.486C215.826 211.982 213.087 214.292 208.995 214.292ZM220.707 209.705V199.739H217.671V197.264H220.707V192.545H223.413V197.264H227.769V199.739H223.413V209.672C223.413 211.091 223.908 211.619 225.36 211.619H228.033V214.094H225.096C221.862 214.094 220.707 212.675 220.707 209.705ZM231.764 194.426C230.774 194.426 230.015 193.7 230.015 192.677C230.015 191.654 230.774 190.928 231.764 190.928C232.754 190.928 233.513 191.654 233.513 192.677C233.513 193.7 232.754 194.426 231.764 194.426ZM230.378 214.094V197.264H233.084V214.094H230.378ZM241.411 214.094L235.108 197.264H238.012L243.094 211.025L248.143 197.264H250.981L244.678 214.094H241.411ZM254.387 194.426C253.397 194.426 252.638 193.7 252.638 192.677C252.638 191.654 253.397 190.928 254.387 190.928C255.377 190.928 256.136 191.654 256.136 192.677C256.136 193.7 255.377 194.426 254.387 194.426ZM253.001 214.094V197.264H255.707V214.094H253.001ZM260.668 209.705V199.739H257.632V197.264H260.668V192.545H263.374V197.264H267.73V199.739H263.374V209.672C263.374 211.091 263.869 211.619 265.321 211.619H267.994V214.094H265.057C261.823 214.094 260.668 212.675 260.668 209.705ZM275.223 214.193L268.656 197.264H271.527L276.708 210.695L281.724 197.264H284.595L276.84 216.932C275.784 219.638 275.157 220.694 272.781 220.694H269.547V218.219H271.956C273.507 218.219 273.771 217.823 274.398 216.239L275.223 214.193ZM310.133 211.619H310.991V214.094H309.506C307.262 214.094 306.503 213.137 306.47 211.487C305.414 213.005 303.731 214.292 300.827 214.292C297.131 214.292 294.623 212.444 294.623 209.375C294.623 206.009 296.966 204.128 301.388 204.128H306.338V202.973C306.338 200.795 304.787 199.475 302.147 199.475C299.771 199.475 298.187 200.597 297.857 202.313H295.151C295.547 199.013 298.22 197.066 302.279 197.066C306.569 197.066 309.044 199.211 309.044 203.138V210.497C309.044 211.388 309.374 211.619 310.133 211.619ZM306.338 207.23V206.405H301.124C298.715 206.405 297.362 207.296 297.362 209.21C297.362 210.86 298.781 211.982 301.025 211.982C304.391 211.982 306.338 210.035 306.338 207.23ZM321.321 197.066C325.116 197.066 328.119 199.145 328.119 204.722V214.094H325.413V204.887C325.413 201.389 323.796 199.541 320.859 199.541C317.691 199.541 315.777 201.884 315.777 205.679V214.094H313.071V197.264H315.414L315.777 199.541C316.767 198.254 318.483 197.066 321.321 197.066ZM344.642 199.838V190.994H347.348V214.094H345.005L344.642 211.388C343.52 212.939 341.705 214.292 338.867 214.292C334.214 214.292 330.782 211.157 330.782 205.679C330.782 200.531 334.214 197.066 338.867 197.066C341.705 197.066 343.619 198.221 344.642 199.838ZM339.131 211.883C342.431 211.883 344.675 209.342 344.675 205.745C344.675 202.049 342.431 199.475 339.131 199.475C335.798 199.475 333.554 202.016 333.554 205.679C333.554 209.342 335.798 211.883 339.131 211.883ZM121.049 230.426C120.059 230.426 119.3 229.7 119.3 228.677C119.3 227.654 120.059 226.928 121.049 226.928C122.039 226.928 122.798 227.654 122.798 228.677C122.798 229.7 122.039 230.426 121.049 230.426ZM119.663 250.094V233.264H122.369V250.094H119.663ZM134.327 233.066C138.122 233.066 141.125 235.145 141.125 240.722V250.094H138.419V240.887C138.419 237.389 136.802 235.541 133.865 235.541C130.697 235.541 128.783 237.884 128.783 241.679V250.094H126.077V233.264H128.42L128.783 235.541C129.773 234.254 131.489 233.066 134.327 233.066ZM145.829 245.705V235.739H142.793V233.264H145.829V228.545H148.535V233.264H152.891V235.739H148.535V245.672C148.535 247.091 149.03 247.619 150.482 247.619H153.155V250.094H150.218C146.984 250.094 145.829 248.675 145.829 245.705ZM162.835 250.292C157.786 250.292 154.486 246.827 154.486 241.679C154.486 236.564 157.72 233.066 162.472 233.066C167.224 233.066 170.326 236.069 170.458 241.052C170.458 241.415 170.425 241.811 170.392 242.207H157.324V242.438C157.423 245.639 159.436 247.883 162.637 247.883C165.013 247.883 166.861 246.629 167.422 244.451H170.161C169.501 247.817 166.729 250.292 162.835 250.292ZM157.489 239.963H167.554C167.29 237.059 165.31 235.442 162.505 235.442C160.03 235.442 157.753 237.224 157.489 239.963ZM181.334 233.264H182.093V235.904H180.74C177.209 235.904 176.252 238.841 176.252 241.514V250.094H173.546V233.264H175.889L176.252 235.805C177.044 234.518 178.331 233.264 181.334 233.264ZM191.227 250.292C186.31 250.292 182.878 246.794 182.878 241.679C182.878 236.564 186.31 233.066 191.227 233.066C196.144 233.066 199.576 236.564 199.576 241.679C199.576 246.794 196.144 250.292 191.227 250.292ZM191.227 247.883C194.56 247.883 196.804 245.276 196.804 241.679C196.804 238.082 194.56 235.475 191.227 235.475C187.894 235.475 185.65 238.082 185.65 241.679C185.65 245.276 187.894 247.883 191.227 247.883ZM211.16 233.066C215.813 233.066 219.245 236.201 219.245 241.679C219.245 246.827 215.813 250.292 211.16 250.292C208.322 250.292 206.408 249.137 205.385 247.52V256.694H202.679V233.264H205.022L205.385 235.97C206.507 234.419 208.322 233.066 211.16 233.066ZM210.896 247.883C214.229 247.883 216.473 245.342 216.473 241.679C216.473 238.016 214.229 235.475 210.896 235.475C207.596 235.475 205.352 238.016 205.352 241.613C205.352 245.309 207.596 247.883 210.896 247.883ZM230.092 250.292C225.043 250.292 221.743 246.827 221.743 241.679C221.743 236.564 224.977 233.066 229.729 233.066C234.481 233.066 237.583 236.069 237.715 241.052C237.715 241.415 237.682 241.811 237.649 242.207H224.581V242.438C224.68 245.639 226.693 247.883 229.894 247.883C232.27 247.883 234.118 246.629 234.679 244.451H237.418C236.758 247.817 233.986 250.292 230.092 250.292ZM224.746 239.963H234.811C234.547 237.059 232.567 235.442 229.762 235.442C227.287 235.442 225.01 237.224 224.746 239.963ZM248.591 233.264H249.35V235.904H247.997C244.466 235.904 243.509 238.841 243.509 241.514V250.094H240.803V233.264H243.146L243.509 235.805C244.301 234.518 245.588 233.264 248.591 233.264ZM265.999 247.619H266.857V250.094H265.372C263.128 250.094 262.369 249.137 262.336 247.487C261.28 249.005 259.597 250.292 256.693 250.292C252.997 250.292 250.489 248.444 250.489 245.375C250.489 242.009 252.832 240.128 257.254 240.128H262.204V238.973C262.204 236.795 260.653 235.475 258.013 235.475C255.637 235.475 254.053 236.597 253.723 238.313H251.017C251.413 235.013 254.086 233.066 258.145 233.066C262.435 233.066 264.91 235.211 264.91 239.138V246.497C264.91 247.388 265.24 247.619 265.999 247.619ZM262.204 243.23V242.405H256.99C254.581 242.405 253.228 243.296 253.228 245.21C253.228 246.86 254.647 247.982 256.891 247.982C260.257 247.982 262.204 246.035 262.204 243.23ZM277.418 233.066C282.071 233.066 285.503 236.201 285.503 241.679C285.503 246.827 282.071 250.292 277.418 250.292C274.58 250.292 272.666 249.137 271.643 247.52L271.28 250.094H268.937V226.994H271.643V235.97C272.765 234.419 274.58 233.066 277.418 233.066ZM277.154 247.883C280.487 247.883 282.731 245.342 282.731 241.679C282.731 238.016 280.487 235.475 277.154 235.475C273.854 235.475 271.61 238.016 271.61 241.613C271.61 245.309 273.854 247.883 277.154 247.883ZM289.981 230.426C288.991 230.426 288.232 229.7 288.232 228.677C288.232 227.654 288.991 226.928 289.981 226.928C290.971 226.928 291.73 227.654 291.73 228.677C291.73 229.7 290.971 230.426 289.981 230.426ZM288.595 250.094V233.264H291.301V250.094H288.595ZM295.008 250.094V226.994H297.714V250.094H295.008ZM302.807 230.426C301.817 230.426 301.058 229.7 301.058 228.677C301.058 227.654 301.817 226.928 302.807 226.928C303.797 226.928 304.556 227.654 304.556 228.677C304.556 229.7 303.797 230.426 302.807 230.426ZM301.421 250.094V233.264H304.127V250.094H301.421ZM309.088 245.705V235.739H306.052V233.264H309.088V228.545H311.794V233.264H316.15V235.739H311.794V245.672C311.794 247.091 312.289 247.619 313.741 247.619H316.414V250.094H313.477C310.243 250.094 309.088 248.675 309.088 245.705ZM323.643 250.193L317.076 233.264H319.947L325.128 246.695L330.144 233.264H333.015L325.26 252.932C324.204 255.638 323.577 256.694 321.201 256.694H317.967V254.219H320.376C321.927 254.219 322.191 253.823 322.818 252.239L323.643 250.193Z" fill="#333333"/>
<path d="M105.474 281.202C101.856 281.202 99.588 278.646 99.588 274.794C99.588 270.978 101.946 268.386 105.6 268.386C108.39 268.386 110.424 270.006 110.892 272.616H109.236C108.75 270.87 107.418 269.826 105.528 269.826C102.882 269.826 101.19 271.878 101.19 274.794C101.19 277.692 102.81 279.762 105.456 279.762C107.4 279.762 108.75 278.736 109.218 276.972H110.874C110.406 279.582 108.318 281.202 105.474 281.202ZM116.779 281.202C114.097 281.202 112.225 279.294 112.225 276.504C112.225 273.714 114.097 271.806 116.779 271.806C119.461 271.806 121.333 273.714 121.333 276.504C121.333 279.294 119.461 281.202 116.779 281.202ZM116.779 279.888C118.597 279.888 119.821 278.466 119.821 276.504C119.821 274.542 118.597 273.12 116.779 273.12C114.961 273.12 113.737 274.542 113.737 276.504C113.737 278.466 114.961 279.888 116.779 279.888ZM127.526 271.806C129.596 271.806 131.234 272.94 131.234 275.982V281.094H129.758V276.072C129.758 274.164 128.876 273.156 127.274 273.156C125.546 273.156 124.502 274.434 124.502 276.504V281.094H123.026V271.914H124.304L124.502 273.156C125.042 272.454 125.978 271.806 127.526 271.806ZM137.615 271.806C139.685 271.806 141.323 272.94 141.323 275.982V281.094H139.847V276.072C139.847 274.164 138.965 273.156 137.363 273.156C135.635 273.156 134.591 274.434 134.591 276.504V281.094H133.115V271.914H134.393L134.591 273.156C135.131 272.454 136.067 271.806 137.615 271.806ZM147.33 281.202C144.576 281.202 142.776 279.312 142.776 276.504C142.776 273.714 144.54 271.806 147.132 271.806C149.724 271.806 151.416 273.444 151.488 276.162C151.488 276.36 151.47 276.576 151.452 276.792H144.324V276.918C144.378 278.664 145.476 279.888 147.222 279.888C148.518 279.888 149.526 279.204 149.832 278.016H151.326C150.966 279.852 149.454 281.202 147.33 281.202ZM144.414 275.568H149.904C149.76 273.984 148.68 273.102 147.15 273.102C145.8 273.102 144.558 274.074 144.414 275.568ZM157.294 281.202C154.612 281.202 152.848 279.384 152.848 276.522C152.848 273.714 154.666 271.806 157.33 271.806C159.58 271.806 161.002 273.066 161.38 275.082H159.832C159.562 273.858 158.662 273.12 157.312 273.12C155.548 273.12 154.36 274.524 154.36 276.522C154.36 278.52 155.548 279.888 157.312 279.888C158.626 279.888 159.526 279.132 159.814 277.962H161.38C161.02 279.942 159.526 281.202 157.294 281.202ZM163.682 278.7V273.264H162.026V271.914H163.682V269.34H165.158V271.914H167.534V273.264H165.158V278.682C165.158 279.456 165.428 279.744 166.22 279.744H167.678V281.094H166.076C164.312 281.094 163.682 280.32 163.682 278.7ZM174.352 278.7V273.264H172.696V271.914H174.352V269.34H175.828V271.914H178.204V273.264H175.828V278.682C175.828 279.456 176.098 279.744 176.89 279.744H178.348V281.094H176.746C174.982 281.094 174.352 280.32 174.352 278.7ZM183.629 281.202C180.947 281.202 179.075 279.294 179.075 276.504C179.075 273.714 180.947 271.806 183.629 271.806C186.311 271.806 188.183 273.714 188.183 276.504C188.183 279.294 186.311 281.202 183.629 281.202ZM183.629 279.888C185.447 279.888 186.671 278.466 186.671 276.504C186.671 274.542 185.447 273.12 183.629 273.12C181.811 273.12 180.587 274.542 180.587 276.504C180.587 278.466 181.811 279.888 183.629 279.888ZM202.704 279.744H203.172V281.094H202.362C201.138 281.094 200.724 280.572 200.706 279.672C200.13 280.5 199.212 281.202 197.628 281.202C195.612 281.202 194.244 280.194 194.244 278.52C194.244 276.684 195.522 275.658 197.934 275.658H200.634V275.028C200.634 273.84 199.788 273.12 198.348 273.12C197.052 273.12 196.188 273.732 196.008 274.668H194.532C194.748 272.868 196.206 271.806 198.42 271.806C200.76 271.806 202.11 272.976 202.11 275.118V279.132C202.11 279.618 202.29 279.744 202.704 279.744ZM200.634 277.35V276.9H197.79C196.476 276.9 195.738 277.386 195.738 278.43C195.738 279.33 196.512 279.942 197.736 279.942C199.572 279.942 200.634 278.88 200.634 277.35ZM208.807 271.806C210.877 271.806 212.515 272.94 212.515 275.982V281.094H211.039V276.072C211.039 274.164 210.157 273.156 208.555 273.156C206.827 273.156 205.783 274.434 205.783 276.504V281.094H204.307V271.914H205.585L205.783 273.156C206.323 272.454 207.259 271.806 208.807 271.806ZM216.727 281.148L213.145 271.914H214.711L217.537 279.24L220.273 271.914H221.839L217.609 282.642C217.033 284.118 216.691 284.694 215.395 284.694H213.631V283.344H214.945C215.791 283.344 215.935 283.128 216.277 282.264L216.727 281.148ZM232.277 271.806C234.815 271.806 236.687 273.516 236.687 276.504C236.687 279.312 234.815 281.202 232.277 281.202C230.729 281.202 229.685 280.572 229.127 279.69V284.694H227.651V271.914H228.929L229.127 273.39C229.739 272.544 230.729 271.806 232.277 271.806ZM232.133 279.888C233.951 279.888 235.175 278.502 235.175 276.504C235.175 274.506 233.951 273.12 232.133 273.12C230.333 273.12 229.109 274.506 229.109 276.468C229.109 278.484 230.333 279.888 232.133 279.888ZM238.373 281.094V268.494H239.849V281.094H238.373ZM249.989 279.744H250.457V281.094H249.647C248.423 281.094 248.009 280.572 247.991 279.672C247.415 280.5 246.497 281.202 244.913 281.202C242.897 281.202 241.529 280.194 241.529 278.52C241.529 276.684 242.807 275.658 245.219 275.658H247.919V275.028C247.919 273.84 247.073 273.12 245.633 273.12C244.337 273.12 243.473 273.732 243.293 274.668H241.817C242.033 272.868 243.491 271.806 245.705 271.806C248.045 271.806 249.395 272.976 249.395 275.118V279.132C249.395 279.618 249.575 279.744 249.989 279.744ZM247.919 277.35V276.9H245.075C243.761 276.9 243.023 277.386 243.023 278.43C243.023 279.33 243.797 279.942 245.021 279.942C246.857 279.942 247.919 278.88 247.919 277.35ZM252.276 278.7V273.264H250.62V271.914H252.276V269.34H253.752V271.914H256.128V273.264H253.752V278.682C253.752 279.456 254.022 279.744 254.814 279.744H256.272V281.094H254.67C252.906 281.094 252.276 280.32 252.276 278.7ZM256.755 273.264V271.914H258.411V270.888C258.411 269.268 259.095 268.494 260.805 268.494H262.479V269.844H260.895C260.157 269.844 259.887 270.15 259.887 270.852V271.914H262.479V273.264H259.887V281.094H258.411V273.264H256.755ZM267.353 281.202C264.671 281.202 262.799 279.294 262.799 276.504C262.799 273.714 264.671 271.806 267.353 271.806C270.035 271.806 271.907 273.714 271.907 276.504C271.907 279.294 270.035 281.202 267.353 281.202ZM267.353 279.888C269.171 279.888 270.395 278.466 270.395 276.504C270.395 274.542 269.171 273.12 267.353 273.12C265.535 273.12 264.311 274.542 264.311 276.504C264.311 278.466 265.535 279.888 267.353 279.888ZM277.848 271.914H278.262V273.354H277.524C275.598 273.354 275.076 274.956 275.076 276.414V281.094H273.6V271.914H274.878L275.076 273.3C275.508 272.598 276.21 271.914 277.848 271.914ZM289.783 271.806C291.691 271.806 293.257 272.904 293.257 275.802V281.094H291.781V275.892C291.781 274.092 290.989 273.156 289.603 273.156C288.073 273.156 287.137 274.308 287.137 276.18V281.094H285.661V275.892C285.661 274.092 284.851 273.156 283.447 273.156C281.935 273.156 281.017 274.416 281.017 276.252V281.094H279.541V271.914H280.819L281.017 273.174C281.503 272.508 282.277 271.806 283.699 271.806C284.977 271.806 286.075 272.382 286.597 273.552C287.155 272.562 288.145 271.806 289.783 271.806ZM302.382 281.094L298.944 271.914H300.528L303.3 279.42L306.054 271.914H307.602L304.164 281.094H302.382ZM309.459 270.366C308.919 270.366 308.505 269.97 308.505 269.412C308.505 268.854 308.919 268.458 309.459 268.458C309.999 268.458 310.413 268.854 310.413 269.412C310.413 269.97 309.999 270.366 309.459 270.366ZM308.703 281.094V271.914H310.179V281.094H308.703ZM320.319 279.744H320.787V281.094H319.977C318.753 281.094 318.339 280.572 318.321 279.672C317.745 280.5 316.827 281.202 315.243 281.202C313.227 281.202 311.859 280.194 311.859 278.52C311.859 276.684 313.137 275.658 315.549 275.658H318.249V275.028C318.249 273.84 317.403 273.12 315.963 273.12C314.667 273.12 313.803 273.732 313.623 274.668H312.147C312.363 272.868 313.821 271.806 316.035 271.806C318.375 271.806 319.725 272.976 319.725 275.118V279.132C319.725 279.618 319.905 279.744 320.319 279.744ZM318.249 277.35V276.9H315.405C314.091 276.9 313.353 277.386 313.353 278.43C313.353 279.33 314.127 279.942 315.351 279.942C317.187 279.942 318.249 278.88 318.249 277.35ZM327.443 281.094H325.823L330.629 268.494H332.483L337.271 281.094H335.597L334.265 277.692H328.775L327.443 281.094ZM331.511 270.204L329.243 276.27H333.797L331.511 270.204ZM338.697 281.094V268.494H343.539C346.059 268.494 347.715 270.006 347.715 272.364C347.715 274.722 346.059 276.252 343.539 276.252H340.263V281.094H338.697ZM343.413 269.934H340.263V274.812H343.395C345.051 274.812 346.113 273.858 346.113 272.364C346.113 270.87 345.069 269.934 343.413 269.934ZM349.384 281.094V268.494H350.95V281.094H349.384ZM197.738 302.744H198.206V304.094H197.396C196.172 304.094 195.758 303.572 195.74 302.672C195.164 303.5 194.246 304.202 192.662 304.202C190.646 304.202 189.278 303.194 189.278 301.52C189.278 299.684 190.556 298.658 192.968 298.658H195.668V298.028C195.668 296.84 194.822 296.12 193.382 296.12C192.086 296.12 191.222 296.732 191.042 297.668H189.566C189.782 295.868 191.24 294.806 193.454 294.806C195.794 294.806 197.144 295.976 197.144 298.118V302.132C197.144 302.618 197.324 302.744 197.738 302.744ZM195.668 300.35V299.9H192.824C191.51 299.9 190.772 300.386 190.772 301.43C190.772 302.33 191.546 302.942 192.77 302.942C194.606 302.942 195.668 301.88 195.668 300.35ZM203.841 294.806C205.911 294.806 207.549 295.94 207.549 298.982V304.094H206.073V299.072C206.073 297.164 205.191 296.156 203.589 296.156C201.861 296.156 200.817 297.434 200.817 299.504V304.094H199.341V294.914H200.619L200.817 296.156C201.357 295.454 202.293 294.806 203.841 294.806ZM216.561 296.318V291.494H218.037V304.094H216.759L216.561 302.618C215.949 303.464 214.959 304.202 213.411 304.202C210.873 304.202 209.001 302.492 209.001 299.504C209.001 296.696 210.873 294.806 213.411 294.806C214.959 294.806 216.003 295.436 216.561 296.318ZM213.555 302.888C215.355 302.888 216.579 301.502 216.579 299.54C216.579 297.524 215.355 296.12 213.555 296.12C211.737 296.12 210.513 297.506 210.513 299.504C210.513 301.502 211.737 302.888 213.555 302.888ZM224.975 304.094V291.494H226.955L231.419 301.952L235.829 291.494H237.773V304.094H236.243V294.158L232.067 304.094H230.681L226.505 294.158V304.094H224.975ZM245.633 304.202C242.015 304.202 239.747 301.646 239.747 297.794C239.747 293.978 242.105 291.386 245.759 291.386C248.549 291.386 250.583 293.006 251.051 295.616H249.395C248.909 293.87 247.577 292.826 245.687 292.826C243.041 292.826 241.349 294.878 241.349 297.794C241.349 300.692 242.969 302.762 245.615 302.762C247.559 302.762 248.909 301.736 249.377 299.972H251.033C250.565 302.582 248.477 304.202 245.633 304.202ZM252.924 304.094V291.494H257.766C260.286 291.494 261.942 293.006 261.942 295.364C261.942 297.722 260.286 299.252 257.766 299.252H254.49V304.094H252.924ZM257.64 292.934H254.49V297.812H257.622C259.278 297.812 260.34 296.858 260.34 295.364C260.34 293.87 259.296 292.934 257.64 292.934Z" fill="#7E7E7E"/>
<path d="M269.36 125.764L225.567 169.448L241.78 125.782L225.625 81.8906L269.36 125.764Z" fill="#333333"/>
<path d="M181.763 125.764L225.556 169.448L209.343 125.782L225.498 81.8906L181.763 125.764Z" fill="#333333"/>
</svg>
