<svg width="936" height="743" viewBox="0 0 936 743" fill="none" xmlns="http://www.w3.org/2000/svg">
<circle cx="303.281" cy="371.441" r="302.281" stroke="#EAEAEA" stroke-width="2"/>
<circle cx="632.337" cy="371.442" r="302.281" transform="rotate(-75 632.337 371.442)" stroke="#EAEAEA" stroke-width="2"/>
<path d="M26.2069 382.941V367.541H32.1029C35.1829 367.541 37.2289 369.389 37.2289 372.271C37.2289 374.427 35.9309 376.099 33.9509 376.649L37.4049 382.941H35.2489L31.9929 377.023H28.1209V382.941H26.2069ZM31.9709 369.301H28.1209V375.263H31.9489C33.9729 375.263 35.2709 374.075 35.2709 372.271C35.2709 370.467 33.9729 369.301 31.9709 369.301ZM43.9821 383.073C40.6161 383.073 38.4161 380.763 38.4161 377.331C38.4161 373.921 40.5721 371.589 43.7401 371.589C46.9081 371.589 48.9761 373.591 49.0641 376.913C49.0641 377.155 49.0421 377.419 49.0201 377.683H40.3081V377.837C40.3741 379.971 41.7161 381.467 43.8501 381.467C45.4341 381.467 46.6661 380.631 47.0401 379.179H48.8661C48.4261 381.423 46.5781 383.073 43.9821 383.073ZM40.4181 376.187H47.1281C46.9521 374.251 45.6321 373.173 43.7621 373.173C42.1121 373.173 40.5941 374.361 40.4181 376.187ZM51.1226 382.941V367.541H52.9266V382.941H51.1226ZM56.322 369.829C55.662 369.829 55.156 369.345 55.156 368.663C55.156 367.981 55.662 367.497 56.322 367.497C56.982 367.497 57.488 367.981 57.488 368.663C57.488 369.345 56.982 369.829 56.322 369.829ZM55.398 382.941V371.721H57.202V382.941H55.398ZM69.5954 381.291H70.1674V382.941H69.1774C67.6814 382.941 67.1754 382.303 67.1534 381.203C66.4494 382.215 65.3274 383.073 63.3914 383.073C60.9274 383.073 59.2554 381.841 59.2554 379.795C59.2554 377.551 60.8174 376.297 63.7654 376.297H67.0654V375.527C67.0654 374.075 66.0314 373.195 64.2714 373.195C62.6874 373.195 61.6314 373.943 61.4114 375.087H59.6074C59.8714 372.887 61.6534 371.589 64.3594 371.589C67.2194 371.589 68.8694 373.019 68.8694 375.637V380.543C68.8694 381.137 69.0894 381.291 69.5954 381.291ZM67.0654 378.365V377.815H63.5894C61.9834 377.815 61.0814 378.409 61.0814 379.685C61.0814 380.785 62.0274 381.533 63.5234 381.533C65.7674 381.533 67.0654 380.235 67.0654 378.365ZM77.2083 371.589C80.3103 371.589 82.5983 373.679 82.5983 377.331C82.5983 380.763 80.3103 383.073 77.2083 383.073C75.3163 383.073 74.0403 382.303 73.3583 381.225L73.1163 382.941H71.5543V367.541H73.3583V373.525C74.1063 372.491 75.3163 371.589 77.2083 371.589ZM77.0323 381.467C79.2543 381.467 80.7503 379.773 80.7503 377.331C80.7503 374.889 79.2543 373.195 77.0323 373.195C74.8323 373.195 73.3363 374.889 73.3363 377.287C73.3363 379.751 74.8323 381.467 77.0323 381.467ZM84.6597 382.941V367.541H86.4637V382.941H84.6597ZM94.1051 383.073C90.7391 383.073 88.5391 380.763 88.5391 377.331C88.5391 373.921 90.6951 371.589 93.8631 371.589C97.0311 371.589 99.0991 373.591 99.1871 376.913C99.1871 377.155 99.1651 377.419 99.1431 377.683H90.4311V377.837C90.4971 379.971 91.8391 381.467 93.9731 381.467C95.5571 381.467 96.7891 380.631 97.1631 379.179H98.9891C98.5491 381.423 96.7011 383.073 94.1051 383.073ZM90.5411 376.187H97.2511C97.0751 374.251 95.7551 373.173 93.8851 373.173C92.2351 373.173 90.7171 374.361 90.5411 376.187Z" fill="#333333"/>
<path d="M808.882 379.441V364.041H818.694V365.801H810.796V370.729H817.374V372.489H810.796V377.681H818.98V379.441H808.882ZM819.676 379.441L823.944 373.677L819.962 368.221H822.118L825.088 372.379L828.102 368.221H830.148L826.144 373.677L830.434 379.441H828.278L825 374.931L821.722 379.441H819.676ZM837.368 368.089C840.47 368.089 842.758 370.179 842.758 373.831C842.758 377.263 840.47 379.573 837.368 379.573C835.476 379.573 834.2 378.803 833.518 377.725V383.841H831.714V368.221H833.276L833.518 370.025C834.266 368.991 835.476 368.089 837.368 368.089ZM837.192 377.967C839.414 377.967 840.91 376.273 840.91 373.831C840.91 371.389 839.414 369.695 837.192 369.695C834.992 369.695 833.496 371.389 833.496 373.787C833.496 376.251 834.992 377.967 837.192 377.967ZM844.82 379.441V364.041H846.624V379.441H844.82ZM859.017 377.791H859.589V379.441H858.599C857.103 379.441 856.597 378.803 856.575 377.703C855.871 378.715 854.749 379.573 852.813 379.573C850.349 379.573 848.677 378.341 848.677 376.295C848.677 374.051 850.239 372.797 853.187 372.797H856.487V372.027C856.487 370.575 855.453 369.695 853.693 369.695C852.109 369.695 851.053 370.443 850.833 371.587H849.029C849.293 369.387 851.075 368.089 853.781 368.089C856.641 368.089 858.291 369.519 858.291 372.137V377.043C858.291 377.637 858.511 377.791 859.017 377.791ZM856.487 374.865V374.315H853.011C851.405 374.315 850.503 374.909 850.503 376.185C850.503 377.285 851.449 378.033 852.945 378.033C855.189 378.033 856.487 376.735 856.487 374.865ZM861.9 366.329C861.24 366.329 860.734 365.845 860.734 365.163C860.734 364.481 861.24 363.997 861.9 363.997C862.56 363.997 863.066 364.481 863.066 365.163C863.066 365.845 862.56 366.329 861.9 366.329ZM860.976 379.441V368.221H862.78V379.441H860.976ZM870.751 368.089C873.281 368.089 875.283 369.475 875.283 373.193V379.441H873.479V373.303C873.479 370.971 872.401 369.739 870.443 369.739C868.331 369.739 867.055 371.301 867.055 373.831V379.441H865.251V368.221H866.813L867.055 369.739C867.715 368.881 868.859 368.089 870.751 368.089ZM887.505 377.791H888.077V379.441H887.087C885.591 379.441 885.085 378.803 885.063 377.703C884.359 378.715 883.237 379.573 881.301 379.573C878.837 379.573 877.165 378.341 877.165 376.295C877.165 374.051 878.727 372.797 881.675 372.797H884.975V372.027C884.975 370.575 883.941 369.695 882.181 369.695C880.597 369.695 879.541 370.443 879.321 371.587H877.517C877.781 369.387 879.563 368.089 882.269 368.089C885.129 368.089 886.779 369.519 886.779 372.137V377.043C886.779 377.637 886.999 377.791 887.505 377.791ZM884.975 374.865V374.315H881.499C879.893 374.315 878.991 374.909 878.991 376.185C878.991 377.285 879.937 378.033 881.433 378.033C883.677 378.033 884.975 376.735 884.975 374.865ZM895.118 368.089C898.22 368.089 900.508 370.179 900.508 373.831C900.508 377.263 898.22 379.573 895.118 379.573C893.226 379.573 891.95 378.803 891.268 377.725L891.026 379.441H889.464V364.041H891.268V370.025C892.016 368.991 893.226 368.089 895.118 368.089ZM894.942 377.967C897.164 377.967 898.66 376.273 898.66 373.831C898.66 371.389 897.164 369.695 894.942 369.695C892.742 369.695 891.246 371.389 891.246 373.787C891.246 376.251 892.742 377.967 894.942 377.967ZM902.57 379.441V364.041H904.374V379.441H902.57ZM912.015 379.573C908.649 379.573 906.449 377.263 906.449 373.831C906.449 370.421 908.605 368.089 911.773 368.089C914.941 368.089 917.009 370.091 917.097 373.413C917.097 373.655 917.075 373.919 917.053 374.183H908.341V374.337C908.407 376.471 909.749 377.967 911.883 377.967C913.467 377.967 914.699 377.131 915.073 375.679H916.899C916.459 377.923 914.611 379.573 912.015 379.573ZM908.451 372.687H915.161C914.985 370.751 913.665 369.673 911.795 369.673C910.145 369.673 908.627 370.861 908.451 372.687Z" fill="#333333"/>
<path d="M444.852 362.403H446.832C446.986 364.471 448.592 365.835 450.946 365.835C453.014 365.835 454.488 364.889 454.488 363.217C454.488 361.303 452.596 360.907 450.264 360.511C447.778 360.093 445.226 359.279 445.226 356.287C445.226 353.669 447.36 351.909 450.484 351.909C453.916 351.909 456.028 353.823 456.204 356.595H454.224C454.004 354.813 452.574 353.647 450.484 353.647C448.482 353.647 447.14 354.527 447.14 356.177C447.14 358.025 449.01 358.399 451.32 358.795C453.828 359.213 456.402 360.049 456.402 363.041C456.402 365.703 454.158 367.573 450.924 367.573C447.162 367.573 444.962 365.439 444.852 362.403ZM463.738 367.573C460.372 367.573 458.172 365.263 458.172 361.831C458.172 358.421 460.328 356.089 463.496 356.089C466.664 356.089 468.732 358.091 468.82 361.413C468.82 361.655 468.798 361.919 468.776 362.183H460.064V362.337C460.13 364.471 461.472 365.967 463.606 365.967C465.19 365.967 466.422 365.131 466.796 363.679H468.622C468.182 365.923 466.334 367.573 463.738 367.573ZM460.174 360.687H466.884C466.708 358.751 465.388 357.673 463.518 357.673C461.868 357.673 460.35 358.861 460.174 360.687ZM470.878 367.441V352.041H472.682V367.441H470.878ZM473.966 357.871V356.221H475.99V354.967C475.99 352.987 476.826 352.041 478.916 352.041H480.962V353.691H479.026C478.124 353.691 477.794 354.065 477.794 354.923V356.221H480.962V357.871H477.794V367.441H475.99V357.871H473.966ZM419.585 378.329C418.925 378.329 418.419 377.845 418.419 377.163C418.419 376.481 418.925 375.997 419.585 375.997C420.245 375.997 420.751 376.481 420.751 377.163C420.751 377.845 420.245 378.329 419.585 378.329ZM418.661 391.441V380.221H420.465V391.441H418.661ZM435.454 380.089C437.786 380.089 439.7 381.431 439.7 384.973V391.441H437.896V385.083C437.896 382.883 436.928 381.739 435.234 381.739C433.364 381.739 432.22 383.147 432.22 385.435V391.441H430.416V385.083C430.416 382.883 429.426 381.739 427.71 381.739C425.862 381.739 424.74 383.279 424.74 385.523V391.441H422.936V380.221H424.498L424.74 381.761C425.334 380.947 426.28 380.089 428.018 380.089C429.58 380.089 430.922 380.793 431.56 382.223C432.242 381.013 433.452 380.089 435.454 380.089ZM447.668 380.089C450.77 380.089 453.058 382.179 453.058 385.831C453.058 389.263 450.77 391.573 447.668 391.573C445.776 391.573 444.5 390.803 443.818 389.725V395.841H442.014V380.221H443.576L443.818 382.025C444.566 380.991 445.776 380.089 447.668 380.089ZM447.492 389.967C449.714 389.967 451.21 388.273 451.21 385.831C451.21 383.389 449.714 381.695 447.492 381.695C445.292 381.695 443.796 383.389 443.796 385.787C443.796 388.251 445.292 389.967 447.492 389.967ZM460.312 380.221H460.818V381.981H459.916C457.562 381.981 456.924 383.939 456.924 385.721V391.441H455.12V380.221H456.682L456.924 381.915C457.452 381.057 458.31 380.221 460.312 380.221ZM466.907 391.573C463.629 391.573 461.341 389.241 461.341 385.831C461.341 382.421 463.629 380.089 466.907 380.089C470.185 380.089 472.473 382.421 472.473 385.831C472.473 389.241 470.185 391.573 466.907 391.573ZM466.907 389.967C469.129 389.967 470.625 388.229 470.625 385.831C470.625 383.433 469.129 381.695 466.907 381.695C464.685 381.695 463.189 383.433 463.189 385.831C463.189 388.229 464.685 389.967 466.907 389.967ZM477.127 391.441L472.925 380.221H474.861L478.249 389.395L481.615 380.221H483.507L479.305 391.441H477.127ZM485.778 378.329C485.118 378.329 484.612 377.845 484.612 377.163C484.612 376.481 485.118 375.997 485.778 375.997C486.438 375.997 486.944 376.481 486.944 377.163C486.944 377.845 486.438 378.329 485.778 378.329ZM484.854 391.441V380.221H486.658V391.441H484.854ZM494.629 380.089C497.159 380.089 499.161 381.475 499.161 385.193V391.441H497.357V385.303C497.357 382.971 496.279 381.739 494.321 381.739C492.209 381.739 490.933 383.301 490.933 385.831V391.441H489.129V380.221H490.691L490.933 381.739C491.593 380.881 492.737 380.089 494.629 380.089ZM510.305 382.157L510.547 380.221H512.109V390.891C512.109 394.125 510.393 395.973 506.543 395.973C503.683 395.973 501.681 394.631 501.395 392.167H503.243C503.551 393.575 504.805 394.367 506.675 394.367C509.029 394.367 510.305 393.267 510.305 390.825V389.505C509.557 390.781 508.347 391.573 506.455 391.573C503.353 391.573 501.065 389.483 501.065 385.831C501.065 382.399 503.353 380.089 506.455 380.089C508.347 380.089 509.601 380.903 510.305 382.157ZM506.631 389.967C508.831 389.967 510.327 388.273 510.327 385.875C510.327 383.411 508.831 381.695 506.631 381.695C504.409 381.695 502.913 383.389 502.913 385.831C502.913 388.273 504.409 389.967 506.631 389.967Z" fill="#333333"/>
<circle cx="303.281" cy="371.441" r="302.281" stroke="url(#paint0_linear_1955_1432)" stroke-width="2"/>
<circle cx="632.337" cy="371.442" r="302.281" transform="rotate(-75 632.337 371.442)" stroke="url(#paint1_linear_1955_1432)" stroke-width="2"/>
<defs>
<linearGradient id="paint0_linear_1955_1432" x1="222.968" y1="600.825" x2="357.009" y2="693.24" gradientUnits="userSpaceOnUse">
<stop stop-color="white" stop-opacity="0.2"/>
<stop offset="0.507143" stop-color="white"/>
<stop offset="0.644234" stop-color="#FF9900"/>
<stop offset="1" stop-color="#995C00"/>
</linearGradient>
<linearGradient id="paint1_linear_1955_1432" x1="552.023" y1="600.826" x2="686.064" y2="693.241" gradientUnits="userSpaceOnUse">
<stop stop-color="white" stop-opacity="0.2"/>
<stop offset="0.507143" stop-color="white"/>
<stop offset="0.644234" stop-color="#FF9900"/>
<stop offset="1" stop-color="#995C00"/>
</linearGradient>
</defs>
</svg>
