<svg width="144" height="42" viewBox="0 0 144 42" fill="none" xmlns="http://www.w3.org/2000/svg">
<g clip-path="url(#clip0_917_12757)">
<path d="M36.1348 5.09082L36.1201 16.8525H35.7471L32.1729 9.05762L23.541 5.07031L36.1348 5.09082Z" fill="#333333"/>
<path d="M36.1357 16.8633L36.1211 28.4062H35.7529L32.2461 20.7578L23.7734 16.8438L36.1357 16.8633Z" fill="#333333"/>
<path d="M24.4453 5.09082L24.4297 16.8525H24.0566L20.4834 9.05762L11.8516 5.07031L24.4453 5.09082Z" fill="#333333"/>
<path d="M24.6621 16.8633L24.6475 28.4062H24.2793L20.7725 20.7578L12.2988 16.8438L24.6621 16.8633Z" fill="#333333"/>
<path d="M12.7588 5.09082L12.7441 16.8525H12.3711L8.79785 9.05762L0.166016 5.07031L12.7588 5.09082Z" fill="#333333"/>
<path d="M36.1301 28.4407L36.1152 40.3341L32.3828 32.193L24.2188 28.4219L36.1301 28.4407Z" fill="#333333"/>
<path d="M21.4156 28.7627L21.4055 36.7912L18.886 31.2956L13.375 28.75L21.4156 28.7627Z" fill="#333333"/>
<path d="M11.6363 19.4267L11.6262 27.4553L9.1067 21.9597L3.5957 19.4141L11.6363 19.4267Z" fill="#333333"/>
<path d="M11.6337 28.76L11.6258 35.0815L9.64198 30.7544L5.30273 28.75L11.6337 28.76Z" fill="#333333"/>
</g>
<path d="M44.167 20.4715C44.167 18.3767 44.576 16.5214 45.3939 14.9054C46.2119 13.2894 47.379 12.0425 48.8952 11.1647C50.4114 10.267 52.167 9.8181 54.162 9.8181C56.4763 9.8181 58.4114 10.4465 59.9675 11.7034C61.5436 12.9603 62.5311 14.666 62.9301 16.8206H60.3566C59.9576 15.3642 59.2094 14.2371 58.1122 13.4391C57.0149 12.6211 55.6783 12.2121 54.1022 12.2121C52.6658 12.2121 51.389 12.5612 50.2718 13.2595C49.1745 13.9578 48.3266 14.9353 47.7281 16.1922C47.1296 17.449 46.8304 18.8755 46.8304 20.4715C46.8304 22.0675 47.1296 23.4939 47.7281 24.7508C48.3266 26.0077 49.1745 26.9852 50.2718 27.6835C51.369 28.3817 52.6259 28.7308 54.0423 28.7308C55.3191 28.7308 56.4563 28.4914 57.4538 28.0126C58.4713 27.5139 59.2593 26.8156 59.8179 25.9179C60.3965 25.0002 60.6857 23.9328 60.6857 22.7159V21.9977H54.4014V19.6037H63.2294V30.9453H61.0748L60.8054 27.6236C60.2269 28.5613 59.3591 29.3792 58.2019 30.0775C57.0448 30.7757 55.6483 31.1249 54.0124 31.1249C52.0972 31.1249 50.3915 30.676 48.8952 29.7782C47.3989 28.8805 46.2319 27.6336 45.3939 26.0376C44.576 24.4216 44.167 22.5662 44.167 20.4715ZM67.3013 9.99765H80.648V12.3917H69.9048V19.0949H78.8525V21.4889H69.9048V28.5513H81.037V30.9453H67.3013V9.99765ZM83.9589 30.9453V9.99765H86.3529L97.6048 26.1573V9.99765H100.148V30.9453H97.7544L86.5026 14.7857V30.9453H83.9589ZM123.423 20.4715C123.423 22.5064 122.994 24.3318 122.136 25.9478C121.298 27.5638 120.121 28.8306 118.605 29.7483C117.089 30.666 115.363 31.1249 113.428 31.1249C111.493 31.1249 109.767 30.666 108.251 29.7483C106.735 28.8306 105.548 27.5638 104.69 25.9478C103.852 24.3318 103.433 22.5064 103.433 20.4715C103.433 18.4366 103.852 16.6111 104.69 14.9952C105.548 13.3792 106.735 12.1124 108.251 11.1947C109.767 10.277 111.493 9.8181 113.428 9.8181C115.363 9.8181 117.089 10.277 118.605 11.1947C120.121 12.1124 121.298 13.3792 122.136 14.9952C122.994 16.6111 123.423 18.4366 123.423 20.4715ZM106.096 20.4715C106.096 22.0675 106.406 23.4939 107.024 24.7508C107.642 25.9877 108.5 26.9653 109.598 27.6835C110.715 28.3817 111.992 28.7308 113.428 28.7308C114.864 28.7308 116.131 28.3817 117.229 27.6835C118.346 26.9653 119.214 25.9877 119.832 24.7508C120.45 23.4939 120.76 22.0675 120.76 20.4715C120.76 18.8755 120.45 17.459 119.832 16.2221C119.214 14.9652 118.346 13.9877 117.229 13.2894C116.131 12.5712 114.864 12.2121 113.428 12.2121C111.992 12.2121 110.715 12.5712 109.598 13.2894C108.5 13.9877 107.642 14.9652 107.024 16.2221C106.406 17.459 106.096 18.8755 106.096 20.4715ZM134.733 9.99765C136.11 9.99765 137.327 10.267 138.384 10.8056C139.442 11.3243 140.26 12.0725 140.838 13.05C141.417 14.0076 141.706 15.1348 141.706 16.4316C141.706 17.8879 141.297 19.1548 140.479 20.2321C139.681 21.2894 138.604 22.0076 137.247 22.3867L141.945 30.9453H139.013L134.674 22.8954H129.317V30.9453H126.713V9.99765H134.733ZM129.317 20.5014H134.524C135.9 20.5014 136.998 20.1323 137.816 19.3942C138.634 18.656 139.043 17.6685 139.043 16.4316C139.043 15.2146 138.634 14.2371 137.816 13.4989C136.998 12.7608 135.91 12.3917 134.554 12.3917H129.317V20.5014Z" fill="#333333"/>
<defs>
<clipPath id="clip0_917_12757">
<rect width="35.9688" height="35.9688" fill="white" transform="translate(0.166016 5.07812)"/>
</clipPath>
</defs>
</svg>
