<svg width="451" height="340" viewBox="0 0 451 340" fill="none" xmlns="http://www.w3.org/2000/svg">
<path d="M103.14 215.07V191.97H117.858V194.61H106.011V202.002H115.878V204.642H106.011V212.43H118.287V215.07H103.14ZM129.364 198.042C133.159 198.042 136.162 200.121 136.162 205.698V215.07H133.456V205.863C133.456 202.365 131.839 200.517 128.902 200.517C125.734 200.517 123.82 202.86 123.82 206.655V215.07H121.114V198.24H123.457L123.82 200.517C124.81 199.23 126.526 198.042 129.364 198.042ZM140.866 210.681V200.715H137.83V198.24H140.866V193.521H143.572V198.24H147.928V200.715H143.572V210.648C143.572 212.067 144.067 212.595 145.519 212.595H148.192V215.07H145.255C142.021 215.07 140.866 213.651 140.866 210.681ZM157.873 215.268C152.824 215.268 149.524 211.803 149.524 206.655C149.524 201.54 152.758 198.042 157.51 198.042C162.262 198.042 165.364 201.045 165.496 206.028C165.496 206.391 165.463 206.787 165.43 207.183H152.362V207.414C152.461 210.615 154.474 212.859 157.675 212.859C160.051 212.859 161.899 211.605 162.46 209.427H165.199C164.539 212.793 161.767 215.268 157.873 215.268ZM152.527 204.939H162.592C162.328 202.035 160.348 200.418 157.543 200.418C155.068 200.418 152.791 202.2 152.527 204.939ZM176.371 198.24H177.13V200.88H175.777C172.246 200.88 171.289 203.817 171.289 206.49V215.07H168.583V198.24H170.926L171.289 200.781C172.081 199.494 173.368 198.24 176.371 198.24ZM187.957 198.042C192.61 198.042 196.042 201.177 196.042 206.655C196.042 211.803 192.61 215.268 187.957 215.268C185.119 215.268 183.205 214.113 182.182 212.496V221.67H179.476V198.24H181.819L182.182 200.946C183.304 199.395 185.119 198.042 187.957 198.042ZM187.693 212.859C191.026 212.859 193.27 210.318 193.27 206.655C193.27 202.992 191.026 200.451 187.693 200.451C184.393 200.451 182.149 202.992 182.149 206.589C182.149 210.285 184.393 212.859 187.693 212.859ZM206.922 198.24H207.681V200.88H206.328C202.797 200.88 201.84 203.817 201.84 206.49V215.07H199.134V198.24H201.477L201.84 200.781C202.632 199.494 203.919 198.24 206.922 198.24ZM211.413 195.402C210.423 195.402 209.664 194.676 209.664 193.653C209.664 192.63 210.423 191.904 211.413 191.904C212.403 191.904 213.162 192.63 213.162 193.653C213.162 194.676 212.403 195.402 211.413 195.402ZM210.027 215.07V198.24H212.733V215.07H210.027ZM215.747 209.526H218.519C218.618 211.506 220.367 212.958 223.172 212.958C225.548 212.958 227.231 211.935 227.231 210.384C227.231 208.272 225.383 208.107 222.875 207.81C219.113 207.348 216.11 206.589 216.11 203.091C216.11 200.022 218.915 198.009 222.71 198.042C226.538 198.075 229.31 199.857 229.574 203.355H226.802C226.604 201.639 225.02 200.352 222.71 200.352C220.367 200.352 218.783 201.342 218.783 202.893C218.783 204.741 220.565 204.972 223.007 205.269C226.835 205.731 229.904 206.457 229.904 210.186C229.904 213.321 226.901 215.268 223.172 215.268C218.816 215.268 215.813 213.222 215.747 209.526ZM240.663 215.268C235.614 215.268 232.314 211.803 232.314 206.655C232.314 201.54 235.548 198.042 240.3 198.042C245.052 198.042 248.154 201.045 248.286 206.028C248.286 206.391 248.253 206.787 248.22 207.183H235.152V207.414C235.251 210.615 237.264 212.859 240.465 212.859C242.841 212.859 244.689 211.605 245.25 209.427H247.989C247.329 212.793 244.557 215.268 240.663 215.268ZM235.317 204.939H245.382C245.118 202.035 243.138 200.418 240.333 200.418C237.858 200.418 235.581 202.2 235.317 204.939ZM262.359 206.82H251.37V204.543H262.359V206.82ZM279.496 201.144L279.859 198.24H282.202V214.245C282.202 219.096 279.628 221.868 273.853 221.868C269.563 221.868 266.56 219.855 266.131 216.159H268.903C269.365 218.271 271.246 219.459 274.051 219.459C277.582 219.459 279.496 217.809 279.496 214.146V212.166C278.374 214.08 276.559 215.268 273.721 215.268C269.068 215.268 265.636 212.133 265.636 206.655C265.636 201.507 269.068 198.042 273.721 198.042C276.559 198.042 278.44 199.263 279.496 201.144ZM273.985 212.859C277.285 212.859 279.529 210.318 279.529 206.721C279.529 203.025 277.285 200.451 273.985 200.451C270.652 200.451 268.408 202.992 268.408 206.655C268.408 210.318 270.652 212.859 273.985 212.859ZM293.676 198.24H294.435V200.88H293.082C289.551 200.88 288.594 203.817 288.594 206.49V215.07H285.888V198.24H288.231L288.594 200.781C289.386 199.494 290.673 198.24 293.676 198.24ZM311.084 212.595H311.942V215.07H310.457C308.213 215.07 307.454 214.113 307.421 212.463C306.365 213.981 304.682 215.268 301.778 215.268C298.082 215.268 295.574 213.42 295.574 210.351C295.574 206.985 297.917 205.104 302.339 205.104H307.289V203.949C307.289 201.771 305.738 200.451 303.098 200.451C300.722 200.451 299.138 201.573 298.808 203.289H296.102C296.498 199.989 299.171 198.042 303.23 198.042C307.52 198.042 309.995 200.187 309.995 204.114V211.473C309.995 212.364 310.325 212.595 311.084 212.595ZM307.289 208.206V207.381H302.075C299.666 207.381 298.313 208.272 298.313 210.186C298.313 211.836 299.732 212.958 301.976 212.958C305.342 212.958 307.289 211.011 307.289 208.206ZM327.094 200.814V191.97H329.8V215.07H327.457L327.094 212.364C325.972 213.915 324.157 215.268 321.319 215.268C316.666 215.268 313.234 212.133 313.234 206.655C313.234 201.507 316.666 198.042 321.319 198.042C324.157 198.042 326.071 199.197 327.094 200.814ZM321.583 212.859C324.883 212.859 327.127 210.318 327.127 206.721C327.127 203.025 324.883 200.451 321.583 200.451C318.25 200.451 316.006 202.992 316.006 206.655C316.006 210.318 318.25 212.859 321.583 212.859ZM341.242 215.268C336.193 215.268 332.893 211.803 332.893 206.655C332.893 201.54 336.127 198.042 340.879 198.042C345.631 198.042 348.733 201.045 348.865 206.028C348.865 206.391 348.832 206.787 348.799 207.183H335.731V207.414C335.83 210.615 337.843 212.859 341.044 212.859C343.42 212.859 345.268 211.605 345.829 209.427H348.568C347.908 212.793 345.136 215.268 341.242 215.268ZM335.896 204.939H345.961C345.697 202.035 343.717 200.418 340.912 200.418C338.437 200.418 336.16 202.2 335.896 204.939ZM168.841 245.526H171.613C171.712 247.506 173.461 248.958 176.266 248.958C178.642 248.958 180.325 247.935 180.325 246.384C180.325 244.272 178.477 244.107 175.969 243.81C172.207 243.348 169.204 242.589 169.204 239.091C169.204 236.022 172.009 234.009 175.804 234.042C179.632 234.075 182.404 235.857 182.668 239.355H179.896C179.698 237.639 178.114 236.352 175.804 236.352C173.461 236.352 171.877 237.342 171.877 238.893C171.877 240.741 173.659 240.972 176.101 241.269C179.929 241.731 182.998 242.457 182.998 246.186C182.998 249.321 179.995 251.268 176.266 251.268C171.91 251.268 168.907 249.222 168.841 245.526ZM193.757 251.268C188.708 251.268 185.408 247.803 185.408 242.655C185.408 237.54 188.642 234.042 193.394 234.042C198.146 234.042 201.248 237.045 201.38 242.028C201.38 242.391 201.347 242.787 201.314 243.183H188.246V243.414C188.345 246.615 190.358 248.859 193.559 248.859C195.935 248.859 197.783 247.605 198.344 245.427H201.083C200.423 248.793 197.651 251.268 193.757 251.268ZM188.411 240.939H198.476C198.212 238.035 196.232 236.418 193.427 236.418C190.952 236.418 188.675 238.2 188.411 240.939ZM212.025 251.268C207.108 251.268 203.874 247.935 203.874 242.688C203.874 237.54 207.207 234.042 212.091 234.042C216.216 234.042 218.823 236.352 219.516 240.048H216.678C216.183 237.804 214.533 236.451 212.058 236.451C208.824 236.451 206.646 239.025 206.646 242.688C206.646 246.351 208.824 248.859 212.058 248.859C214.467 248.859 216.117 247.473 216.645 245.328H219.516C218.856 248.958 216.117 251.268 212.025 251.268ZM234.263 242.655V234.24H236.969V251.07H234.626L234.263 248.826C233.273 250.08 231.656 251.268 228.884 251.268C225.188 251.268 222.251 249.189 222.251 243.612V234.24H224.957V243.447C224.957 246.945 226.541 248.793 229.346 248.793C232.415 248.793 234.263 246.45 234.263 242.655ZM248.446 234.24H249.205V236.88H247.852C244.321 236.88 243.364 239.817 243.364 242.49V251.07H240.658V234.24H243.001L243.364 236.781C244.156 235.494 245.443 234.24 248.446 234.24ZM252.937 231.402C251.947 231.402 251.188 230.676 251.188 229.653C251.188 228.63 251.947 227.904 252.937 227.904C253.927 227.904 254.686 228.63 254.686 229.653C254.686 230.676 253.927 231.402 252.937 231.402ZM251.551 251.07V234.24H254.257V251.07H251.551ZM259.218 246.681V236.715H256.182V234.24H259.218V229.521H261.924V234.24H266.28V236.715H261.924V246.648C261.924 248.067 262.419 248.595 263.871 248.595H266.544V251.07H263.607C260.373 251.07 259.218 249.651 259.218 246.681ZM273.773 251.169L267.206 234.24H270.077L275.258 247.671L280.274 234.24H283.145L275.39 253.908C274.334 256.614 273.707 257.67 271.331 257.67H268.097V255.195H270.506C272.057 255.195 272.321 254.799 272.948 253.215L273.773 251.169Z" fill="#333333"/>
<path d="M68.0721 282.07V269.47H72.9141C75.4341 269.47 77.0901 270.982 77.0901 273.34C77.0901 275.698 75.4341 277.228 72.9141 277.228H69.6381V282.07H68.0721ZM72.7881 270.91H69.6381V275.788H72.7701C74.4261 275.788 75.4881 274.834 75.4881 273.34C75.4881 271.846 74.4441 270.91 72.7881 270.91ZM82.7916 272.89H83.2056V274.33H82.4676C80.5416 274.33 80.0196 275.932 80.0196 277.39V282.07H78.5436V272.89H79.8216L80.0196 274.276C80.4516 273.574 81.1536 272.89 82.7916 272.89ZM88.1877 282.178C85.5057 282.178 83.6337 280.27 83.6337 277.48C83.6337 274.69 85.5057 272.782 88.1877 272.782C90.8697 272.782 92.7417 274.69 92.7417 277.48C92.7417 280.27 90.8697 282.178 88.1877 282.178ZM88.1877 280.864C90.0057 280.864 91.2297 279.442 91.2297 277.48C91.2297 275.518 90.0057 274.096 88.1877 274.096C86.3697 274.096 85.1457 275.518 85.1457 277.48C85.1457 279.442 86.3697 280.864 88.1877 280.864ZM95.0128 279.676V274.24H93.3568V272.89H95.0128V270.316H96.4888V272.89H98.8648V274.24H96.4888V279.658C96.4888 280.432 96.7588 280.72 97.5508 280.72H99.0088V282.07H97.4068C95.6428 282.07 95.0128 281.296 95.0128 279.676ZM104.289 282.178C101.535 282.178 99.7353 280.288 99.7353 277.48C99.7353 274.69 101.499 272.782 104.091 272.782C106.683 272.782 108.375 274.42 108.447 277.138C108.447 277.336 108.429 277.552 108.411 277.768H101.283V277.894C101.337 279.64 102.435 280.864 104.181 280.864C105.477 280.864 106.485 280.18 106.791 278.992H108.285C107.925 280.828 106.413 282.178 104.289 282.178ZM101.373 276.544H106.863C106.719 274.96 105.639 274.078 104.109 274.078C102.759 274.078 101.517 275.05 101.373 276.544ZM114.254 282.178C111.572 282.178 109.808 280.36 109.808 277.498C109.808 274.69 111.626 272.782 114.29 272.782C116.54 272.782 117.962 274.042 118.34 276.058H116.792C116.522 274.834 115.622 274.096 114.272 274.096C112.508 274.096 111.32 275.5 111.32 277.498C111.32 279.496 112.508 280.864 114.272 280.864C115.586 280.864 116.486 280.108 116.774 278.938H118.34C117.98 280.918 116.486 282.178 114.254 282.178ZM120.642 279.676V274.24H118.986V272.89H120.642V270.316H122.118V272.89H124.494V274.24H122.118V279.658C122.118 280.432 122.388 280.72 123.18 280.72H124.638V282.07H123.036C121.272 282.07 120.642 281.296 120.642 279.676ZM133.292 282.124L129.71 272.89H131.276L134.102 280.216L136.838 272.89H138.404L134.174 283.618C133.598 285.094 133.256 285.67 131.96 285.67H130.196V284.32H131.51C132.356 284.32 132.5 284.104 132.842 283.24L133.292 282.124ZM143.33 282.178C140.648 282.178 138.776 280.27 138.776 277.48C138.776 274.69 140.648 272.782 143.33 272.782C146.012 272.782 147.884 274.69 147.884 277.48C147.884 280.27 146.012 282.178 143.33 282.178ZM143.33 280.864C145.148 280.864 146.372 279.442 146.372 277.48C146.372 275.518 145.148 274.096 143.33 274.096C141.512 274.096 140.288 275.518 140.288 277.48C140.288 279.442 141.512 280.864 143.33 280.864ZM156.003 277.48V272.89H157.479V282.07H156.201L156.003 280.846C155.463 281.53 154.581 282.178 153.069 282.178C151.053 282.178 149.451 281.044 149.451 278.002V272.89H150.927V277.912C150.927 279.82 151.791 280.828 153.321 280.828C154.995 280.828 156.003 279.55 156.003 277.48ZM163.739 272.89H164.153V274.33H163.415C161.489 274.33 160.967 275.932 160.967 277.39V282.07H159.491V272.89H160.769L160.967 274.276C161.399 273.574 162.101 272.89 163.739 272.89ZM177.379 274.294V269.47H178.855V282.07H177.577L177.379 280.594C176.767 281.44 175.777 282.178 174.229 282.178C171.691 282.178 169.819 280.468 169.819 277.48C169.819 274.672 171.691 272.782 174.229 272.782C175.777 272.782 176.821 273.412 177.379 274.294ZM174.373 280.864C176.173 280.864 177.397 279.478 177.397 277.516C177.397 275.5 176.173 274.096 174.373 274.096C172.555 274.096 171.331 275.482 171.331 277.48C171.331 279.478 172.555 280.864 174.373 280.864ZM188.984 280.72H189.452V282.07H188.642C187.418 282.07 187.004 281.548 186.986 280.648C186.41 281.476 185.492 282.178 183.908 282.178C181.892 282.178 180.524 281.17 180.524 279.496C180.524 277.66 181.802 276.634 184.214 276.634H186.914V276.004C186.914 274.816 186.068 274.096 184.628 274.096C183.332 274.096 182.468 274.708 182.288 275.644H180.812C181.028 273.844 182.486 272.782 184.7 272.782C187.04 272.782 188.39 273.952 188.39 276.094V280.108C188.39 280.594 188.57 280.72 188.984 280.72ZM186.914 278.326V277.876H184.07C182.756 277.876 182.018 278.362 182.018 279.406C182.018 280.306 182.792 280.918 184.016 280.918C185.852 280.918 186.914 279.856 186.914 278.326ZM191.271 279.676V274.24H189.615V272.89H191.271V270.316H192.747V272.89H195.123V274.24H192.747V279.658C192.747 280.432 193.017 280.72 193.809 280.72H195.267V282.07H193.665C191.901 282.07 191.271 281.296 191.271 279.676ZM204.523 280.72H204.991V282.07H204.181C202.957 282.07 202.543 281.548 202.525 280.648C201.949 281.476 201.031 282.178 199.447 282.178C197.431 282.178 196.063 281.17 196.063 279.496C196.063 277.66 197.341 276.634 199.753 276.634H202.453V276.004C202.453 274.816 201.607 274.096 200.167 274.096C198.871 274.096 198.007 274.708 197.827 275.644H196.351C196.567 273.844 198.025 272.782 200.239 272.782C202.579 272.782 203.929 273.952 203.929 276.094V280.108C203.929 280.594 204.109 280.72 204.523 280.72ZM202.453 278.326V277.876H199.609C198.295 277.876 197.557 278.362 197.557 279.406C197.557 280.306 198.331 280.918 199.555 280.918C201.391 280.918 202.453 279.856 202.453 278.326ZM212.943 282.07L209.973 272.89H211.521L213.807 280.36L216.219 272.89H217.587L219.873 280.36L222.267 272.89H223.761L220.701 282.07H219.081L216.867 275.248L214.563 282.07H212.943ZM225.673 271.342C225.133 271.342 224.719 270.946 224.719 270.388C224.719 269.83 225.133 269.434 225.673 269.434C226.213 269.434 226.627 269.83 226.627 270.388C226.627 270.946 226.213 271.342 225.673 271.342ZM224.917 282.07V272.89H226.393V282.07H224.917ZM229.099 279.676V274.24H227.443V272.89H229.099V270.316H230.575V272.89H232.951V274.24H230.575V279.658C230.575 280.432 230.845 280.72 231.637 280.72H233.095V282.07H231.493C229.729 282.07 229.099 281.296 229.099 279.676ZM238.874 272.782C240.926 272.782 242.6 273.916 242.6 276.958V282.07H241.124V277.048C241.124 275.14 240.206 274.132 238.622 274.132C236.912 274.132 235.85 275.41 235.85 277.48V282.07H234.374V269.47H235.85V274.402C236.39 273.538 237.326 272.782 238.874 272.782ZM249.408 282.07V269.47H254.232C256.752 269.47 258.426 270.982 258.426 273.34C258.426 275.104 257.364 276.472 255.744 276.922L258.57 282.07H256.806L254.142 277.228H250.974V282.07H249.408ZM254.124 270.91H250.974V275.788H254.106C255.762 275.788 256.824 274.816 256.824 273.34C256.824 271.864 255.762 270.91 254.124 270.91ZM260.412 282.07V269.47H264.876C267.558 269.47 269.052 270.766 269.052 272.8C269.052 274.24 268.26 275.122 267.072 275.536C268.404 275.788 269.574 276.652 269.574 278.47C269.574 280.702 267.99 282.07 265.002 282.07H260.412ZM264.948 270.892H261.978V274.942H264.948C266.568 274.942 267.486 274.186 267.486 272.908C267.486 271.648 266.586 270.892 264.948 270.892ZM265.002 276.346H261.978V280.648H265.002C266.946 280.648 267.972 279.838 267.972 278.542C267.972 277.12 266.874 276.346 265.002 276.346ZM271.729 282.07H270.109L274.915 269.47H276.769L281.557 282.07H279.883L278.551 278.668H273.061L271.729 282.07ZM275.797 271.18L273.529 277.246H278.083L275.797 271.18ZM287.855 282.178C284.237 282.178 281.969 279.622 281.969 275.77C281.969 271.954 284.327 269.362 287.981 269.362C290.771 269.362 292.805 270.982 293.273 273.592H291.617C291.131 271.846 289.799 270.802 287.909 270.802C285.263 270.802 283.571 272.854 283.571 275.77C283.571 278.668 285.191 280.738 287.837 280.738C289.781 280.738 291.131 279.712 291.599 277.948H293.255C292.787 280.558 290.699 282.178 287.855 282.178ZM294.999 280.18C295.881 280.18 296.421 281.026 296.421 282.016C296.421 283.546 295.467 284.464 293.883 284.5V283.654C295.035 283.636 295.395 282.826 295.395 282.214C295.395 282.124 295.395 282.052 295.377 281.98C295.233 282.124 294.981 282.196 294.765 282.196C294.225 282.196 293.811 281.872 293.811 281.224C293.811 280.63 294.243 280.18 294.999 280.18ZM302.465 277.948H304.085C304.211 279.64 305.525 280.756 307.451 280.756C309.143 280.756 310.349 279.982 310.349 278.614C310.349 277.048 308.801 276.724 306.893 276.4C304.859 276.058 302.771 275.392 302.771 272.944C302.771 270.802 304.517 269.362 307.073 269.362C309.881 269.362 311.609 270.928 311.753 273.196H310.133C309.953 271.738 308.783 270.784 307.073 270.784C305.435 270.784 304.337 271.504 304.337 272.854C304.337 274.366 305.867 274.672 307.757 274.996C309.809 275.338 311.915 276.022 311.915 278.47C311.915 280.648 310.079 282.178 307.433 282.178C304.355 282.178 302.555 280.432 302.465 277.948ZM313.17 277.948H314.79C314.916 279.64 316.23 280.756 318.156 280.756C319.848 280.756 321.054 279.982 321.054 278.614C321.054 277.048 319.506 276.724 317.598 276.4C315.564 276.058 313.476 275.392 313.476 272.944C313.476 270.802 315.222 269.362 317.778 269.362C320.586 269.362 322.314 270.928 322.458 273.196H320.838C320.658 271.738 319.488 270.784 317.778 270.784C316.14 270.784 315.042 271.504 315.042 272.854C315.042 274.366 316.572 274.672 318.462 274.996C320.514 275.338 322.62 276.022 322.62 278.47C322.62 280.648 320.784 282.178 318.138 282.178C315.06 282.178 313.26 280.432 313.17 277.948ZM336.163 275.77C336.163 279.478 333.697 282.178 330.151 282.178C326.605 282.178 324.139 279.478 324.139 275.77C324.139 272.062 326.605 269.362 330.151 269.362C333.697 269.362 336.163 272.062 336.163 275.77ZM325.741 275.77C325.741 278.668 327.523 280.738 330.151 280.738C332.779 280.738 334.561 278.668 334.561 275.77C334.561 272.872 332.779 270.802 330.151 270.802C327.523 270.802 325.741 272.872 325.741 275.77ZM337.591 280.18C338.473 280.18 339.013 281.026 339.013 282.016C339.013 283.546 338.059 284.464 336.475 284.5V283.654C337.627 283.636 337.987 282.826 337.987 282.214C337.987 282.124 337.987 282.052 337.969 281.98C337.825 282.124 337.573 282.196 337.357 282.196C336.817 282.196 336.403 281.872 336.403 281.224C336.403 280.63 336.835 280.18 337.591 280.18ZM353.462 280.72H353.93V282.07H353.12C351.896 282.07 351.482 281.548 351.464 280.648C350.888 281.476 349.97 282.178 348.386 282.178C346.37 282.178 345.002 281.17 345.002 279.496C345.002 277.66 346.28 276.634 348.692 276.634H351.392V276.004C351.392 274.816 350.546 274.096 349.106 274.096C347.81 274.096 346.946 274.708 346.766 275.644H345.29C345.506 273.844 346.964 272.782 349.178 272.782C351.518 272.782 352.868 273.952 352.868 276.094V280.108C352.868 280.594 353.048 280.72 353.462 280.72ZM351.392 278.326V277.876H348.548C347.234 277.876 346.496 278.362 346.496 279.406C346.496 280.306 347.27 280.918 348.494 280.918C350.33 280.918 351.392 279.856 351.392 278.326ZM361.491 277.48V272.89H362.967V282.07H361.689L361.491 280.846C360.951 281.53 360.069 282.178 358.557 282.178C356.541 282.178 354.939 281.044 354.939 278.002V272.89H356.415V277.912C356.415 279.82 357.279 280.828 358.809 280.828C360.483 280.828 361.491 279.55 361.491 277.48ZM372.215 274.294V269.47H373.691V282.07H372.413L372.215 280.594C371.603 281.44 370.613 282.178 369.065 282.178C366.527 282.178 364.655 280.468 364.655 277.48C364.655 274.672 366.527 272.782 369.065 272.782C370.613 272.782 371.657 273.412 372.215 274.294ZM369.209 280.864C371.009 280.864 372.233 279.478 372.233 277.516C372.233 275.5 371.009 274.096 369.209 274.096C367.391 274.096 366.167 275.482 366.167 277.48C366.167 279.478 367.391 280.864 369.209 280.864ZM376.458 271.342C375.918 271.342 375.504 270.946 375.504 270.388C375.504 269.83 375.918 269.434 376.458 269.434C376.998 269.434 377.412 269.83 377.412 270.388C377.412 270.946 376.998 271.342 376.458 271.342ZM375.702 282.07V272.89H377.178V282.07H375.702ZM379.884 279.676V274.24H378.228V272.89H379.884V270.316H381.36V272.89H383.736V274.24H381.36V279.658C381.36 280.432 381.63 280.72 382.422 280.72H383.88V282.07H382.278C380.514 282.07 379.884 281.296 379.884 279.676ZM145.253 305.07V292.47H146.729V305.07H145.253ZM152.981 305.178C150.299 305.178 148.427 303.27 148.427 300.48C148.427 297.69 150.299 295.782 152.981 295.782C155.663 295.782 157.535 297.69 157.535 300.48C157.535 303.27 155.663 305.178 152.981 305.178ZM152.981 303.864C154.799 303.864 156.023 302.442 156.023 300.48C156.023 298.518 154.799 297.096 152.981 297.096C151.163 297.096 149.939 298.518 149.939 300.48C149.939 302.442 151.163 303.864 152.981 303.864ZM166.463 297.474L166.661 295.89H167.939V304.62C167.939 307.266 166.535 308.778 163.385 308.778C161.045 308.778 159.407 307.68 159.173 305.664H160.685C160.937 306.816 161.963 307.464 163.493 307.464C165.419 307.464 166.463 306.564 166.463 304.566V303.486C165.851 304.53 164.861 305.178 163.313 305.178C160.775 305.178 158.903 303.468 158.903 300.48C158.903 297.672 160.775 295.782 163.313 295.782C164.861 295.782 165.887 296.448 166.463 297.474ZM163.457 303.864C165.257 303.864 166.481 302.478 166.481 300.516C166.481 298.5 165.257 297.096 163.457 297.096C161.639 297.096 160.415 298.482 160.415 300.48C160.415 302.478 161.639 303.864 163.457 303.864ZM169.572 302.046H171.084C171.138 303.126 172.092 303.918 173.622 303.918C174.918 303.918 175.836 303.36 175.836 302.514C175.836 301.362 174.828 301.272 173.46 301.11C171.408 300.858 169.77 300.444 169.77 298.536C169.77 296.862 171.3 295.764 173.37 295.782C175.458 295.8 176.97 296.772 177.114 298.68H175.602C175.494 297.744 174.63 297.042 173.37 297.042C172.092 297.042 171.228 297.582 171.228 298.428C171.228 299.436 172.2 299.562 173.532 299.724C175.62 299.976 177.294 300.372 177.294 302.406C177.294 304.116 175.656 305.178 173.622 305.178C171.246 305.178 169.608 304.062 169.572 302.046ZM179.458 303.18C180.34 303.18 180.88 304.026 180.88 305.016C180.88 306.546 179.926 307.464 178.342 307.5V306.654C179.494 306.636 179.854 305.826 179.854 305.214C179.854 305.124 179.854 305.052 179.836 304.98C179.692 305.124 179.44 305.196 179.224 305.196C178.684 305.196 178.27 304.872 178.27 304.224C178.27 303.63 178.702 303.18 179.458 303.18ZM195.33 303.72H195.798V305.07H194.988C193.764 305.07 193.35 304.548 193.332 303.648C192.756 304.476 191.838 305.178 190.254 305.178C188.238 305.178 186.87 304.17 186.87 302.496C186.87 300.66 188.148 299.634 190.56 299.634H193.26V299.004C193.26 297.816 192.414 297.096 190.974 297.096C189.678 297.096 188.814 297.708 188.634 298.644H187.158C187.374 296.844 188.832 295.782 191.046 295.782C193.386 295.782 194.736 296.952 194.736 299.094V303.108C194.736 303.594 194.916 303.72 195.33 303.72ZM193.26 301.326V300.876H190.416C189.102 300.876 188.364 301.362 188.364 302.406C188.364 303.306 189.138 303.918 190.362 303.918C192.198 303.918 193.26 302.856 193.26 301.326ZM201.432 295.782C203.502 295.782 205.14 296.916 205.14 299.958V305.07H203.664V300.048C203.664 298.14 202.782 297.132 201.18 297.132C199.452 297.132 198.408 298.41 198.408 300.48V305.07H196.932V295.89H198.21L198.408 297.132C198.948 296.43 199.884 295.782 201.432 295.782ZM214.153 297.294V292.47H215.629V305.07H214.351L214.153 303.594C213.541 304.44 212.551 305.178 211.003 305.178C208.465 305.178 206.593 303.468 206.593 300.48C206.593 297.672 208.465 295.782 211.003 295.782C212.551 295.782 213.595 296.412 214.153 297.294ZM211.147 303.864C212.947 303.864 214.171 302.478 214.171 300.516C214.171 298.5 212.947 297.096 211.147 297.096C209.329 297.096 208.105 298.482 208.105 300.48C208.105 302.478 209.329 303.864 211.147 303.864ZM226.58 305.178C223.826 305.178 222.026 303.288 222.026 300.48C222.026 297.69 223.79 295.782 226.382 295.782C228.974 295.782 230.666 297.42 230.738 300.138C230.738 300.336 230.72 300.552 230.702 300.768H223.574V300.894C223.628 302.64 224.726 303.864 226.472 303.864C227.768 303.864 228.776 303.18 229.082 301.992H230.576C230.216 303.828 228.704 305.178 226.58 305.178ZM223.664 299.544H229.154C229.01 297.96 227.93 297.078 226.4 297.078C225.05 297.078 223.808 298.05 223.664 299.544ZM236.923 295.782C238.993 295.782 240.631 296.916 240.631 299.958V305.07H239.155V300.048C239.155 298.14 238.273 297.132 236.671 297.132C234.943 297.132 233.899 298.41 233.899 300.48V305.07H232.423V295.89H233.701L233.899 297.132C234.439 296.43 235.375 295.782 236.923 295.782ZM246.529 305.178C243.847 305.178 242.083 303.36 242.083 300.498C242.083 297.69 243.901 295.782 246.565 295.782C248.815 295.782 250.237 297.042 250.615 299.058H249.067C248.797 297.834 247.897 297.096 246.547 297.096C244.783 297.096 243.595 298.5 243.595 300.498C243.595 302.496 244.783 303.864 246.547 303.864C247.861 303.864 248.761 303.108 249.049 301.938H250.615C250.255 303.918 248.761 305.178 246.529 305.178ZM256.481 295.89H256.895V297.33H256.157C254.231 297.33 253.709 298.932 253.709 300.39V305.07H252.233V295.89H253.511L253.709 297.276C254.141 296.574 254.843 295.89 256.481 295.89ZM260.909 305.124L257.327 295.89H258.893L261.719 303.216L264.455 295.89H266.021L261.791 306.618C261.215 308.094 260.873 308.67 259.577 308.67H257.813V307.32H259.127C259.973 307.32 260.117 307.104 260.459 306.24L260.909 305.124ZM271.748 295.782C274.286 295.782 276.158 297.492 276.158 300.48C276.158 303.288 274.286 305.178 271.748 305.178C270.2 305.178 269.156 304.548 268.598 303.666V308.67H267.122V295.89H268.4L268.598 297.366C269.21 296.52 270.2 295.782 271.748 295.782ZM271.604 303.864C273.422 303.864 274.646 302.478 274.646 300.48C274.646 298.482 273.422 297.096 271.604 297.096C269.804 297.096 268.58 298.482 268.58 300.444C268.58 302.46 269.804 303.864 271.604 303.864ZM278.423 302.676V297.24H276.767V295.89H278.423V293.316H279.899V295.89H282.275V297.24H279.899V302.658C279.899 303.432 280.169 303.72 280.961 303.72H282.419V305.07H280.817C279.053 305.07 278.423 304.296 278.423 302.676ZM284.454 294.342C283.914 294.342 283.5 293.946 283.5 293.388C283.5 292.83 283.914 292.434 284.454 292.434C284.994 292.434 285.408 292.83 285.408 293.388C285.408 293.946 284.994 294.342 284.454 294.342ZM283.698 305.07V295.89H285.174V305.07H283.698ZM291.426 305.178C288.744 305.178 286.872 303.27 286.872 300.48C286.872 297.69 288.744 295.782 291.426 295.782C294.108 295.782 295.98 297.69 295.98 300.48C295.98 303.27 294.108 305.178 291.426 305.178ZM291.426 303.864C293.244 303.864 294.468 302.442 294.468 300.48C294.468 298.518 293.244 297.096 291.426 297.096C289.608 297.096 288.384 298.518 288.384 300.48C288.384 302.442 289.608 303.864 291.426 303.864ZM302.173 295.782C304.243 295.782 305.881 296.916 305.881 299.958V305.07H304.405V300.048C304.405 298.14 303.523 297.132 301.921 297.132C300.193 297.132 299.149 298.41 299.149 300.48V305.07H297.673V295.89H298.951L299.149 297.132C299.689 296.43 300.625 295.782 302.173 295.782Z" fill="#7E7E7E"/>
<path d="M225.449 170.445L202.975 147.915L225.439 156.256L248.02 147.945L225.449 170.445Z" fill="#333333"/>
<path d="M179.004 123.874L201.534 101.401L193.193 123.865L201.504 146.445L179.004 123.874Z" fill="#333333"/>
<path d="M225.549 77.3908L248.023 99.9206L225.559 91.5795L202.979 99.8906L225.549 77.3908Z" fill="#333333"/>
<path d="M271.994 123.962L249.464 146.435L257.805 123.971L249.494 101.391L271.994 123.962Z" fill="#333333"/>
</svg>
