<svg width="451" height="339" viewBox="0 0 451 339" fill="none" xmlns="http://www.w3.org/2000/svg">
<path d="M107.369 214.292C100.736 214.292 96.5784 209.606 96.5784 202.544C96.5784 195.548 100.901 190.796 107.6 190.796C112.715 190.796 116.444 193.766 117.302 198.551H114.266C113.375 195.35 110.933 193.436 107.468 193.436C102.617 193.436 99.5154 197.198 99.5154 202.544C99.5154 207.857 102.485 211.652 107.336 211.652C110.9 211.652 113.375 209.771 114.233 206.537H117.269C116.411 211.322 112.583 214.292 107.369 214.292ZM120.34 214.094V190.994H123.046V214.094H120.34ZM134.508 214.292C129.591 214.292 126.159 210.794 126.159 205.679C126.159 200.564 129.591 197.066 134.508 197.066C139.425 197.066 142.857 200.564 142.857 205.679C142.857 210.794 139.425 214.292 134.508 214.292ZM134.508 211.883C137.841 211.883 140.085 209.276 140.085 205.679C140.085 202.082 137.841 199.475 134.508 199.475C131.175 199.475 128.931 202.082 128.931 205.679C128.931 209.276 131.175 211.883 134.508 211.883ZM157.741 205.679V197.264H160.447V214.094H158.104L157.741 211.85C156.751 213.104 155.134 214.292 152.362 214.292C148.666 214.292 145.729 212.213 145.729 206.636V197.264H148.435V206.471C148.435 209.969 150.019 211.817 152.824 211.817C155.893 211.817 157.741 209.474 157.741 205.679ZM177.402 199.838V190.994H180.108V214.094H177.765L177.402 211.388C176.28 212.939 174.465 214.292 171.627 214.292C166.974 214.292 163.542 211.157 163.542 205.679C163.542 200.531 166.974 197.066 171.627 197.066C174.465 197.066 176.379 198.221 177.402 199.838ZM171.891 211.883C175.191 211.883 177.435 209.342 177.435 205.745C177.435 202.049 175.191 199.475 171.891 199.475C168.558 199.475 166.314 202.016 166.314 205.679C166.314 209.342 168.558 211.883 171.891 211.883ZM207.314 211.619H208.172V214.094H206.687C204.443 214.094 203.684 213.137 203.651 211.487C202.595 213.005 200.912 214.292 198.008 214.292C194.312 214.292 191.804 212.444 191.804 209.375C191.804 206.009 194.147 204.128 198.569 204.128H203.519V202.973C203.519 200.795 201.968 199.475 199.328 199.475C196.952 199.475 195.368 200.597 195.038 202.313H192.332C192.728 199.013 195.401 197.066 199.46 197.066C203.75 197.066 206.225 199.211 206.225 203.138V210.497C206.225 211.388 206.555 211.619 207.314 211.619ZM203.519 207.23V206.405H198.305C195.896 206.405 194.543 207.296 194.543 209.21C194.543 210.86 195.962 211.982 198.206 211.982C201.572 211.982 203.519 210.035 203.519 207.23ZM218.502 197.066C222.297 197.066 225.3 199.145 225.3 204.722V214.094H222.594V204.887C222.594 201.389 220.977 199.541 218.04 199.541C214.872 199.541 212.958 201.884 212.958 205.679V214.094H210.252V197.264H212.595L212.958 199.541C213.948 198.254 215.664 197.066 218.502 197.066ZM241.823 199.838V190.994H244.529V214.094H242.186L241.823 211.388C240.701 212.939 238.886 214.292 236.048 214.292C231.395 214.292 227.963 211.157 227.963 205.679C227.963 200.531 231.395 197.066 236.048 197.066C238.886 197.066 240.8 198.221 241.823 199.838ZM236.312 211.883C239.612 211.883 241.856 209.342 241.856 205.745C241.856 202.049 239.612 199.475 236.312 199.475C232.979 199.475 230.735 202.016 230.735 205.679C230.735 209.342 232.979 211.883 236.312 211.883ZM275.629 197.066C279.127 197.066 281.998 199.079 281.998 204.392V214.094H279.292V204.557C279.292 201.257 277.84 199.541 275.299 199.541C272.494 199.541 270.778 201.653 270.778 205.085V214.094H268.072V204.557C268.072 201.257 266.587 199.541 264.013 199.541C261.241 199.541 259.558 201.851 259.558 205.217V214.094H256.852V197.264H259.195L259.558 199.574C260.449 198.353 261.868 197.066 264.475 197.066C266.818 197.066 268.831 198.122 269.788 200.267C270.811 198.452 272.626 197.066 275.629 197.066ZM293.031 214.292C288.114 214.292 284.682 210.794 284.682 205.679C284.682 200.564 288.114 197.066 293.031 197.066C297.948 197.066 301.38 200.564 301.38 205.679C301.38 210.794 297.948 214.292 293.031 214.292ZM293.031 211.883C296.364 211.883 298.608 209.276 298.608 205.679C298.608 202.082 296.364 199.475 293.031 199.475C289.698 199.475 287.454 202.082 287.454 205.679C287.454 209.276 289.698 211.883 293.031 211.883ZM317.749 199.838V190.994H320.455V214.094H318.112L317.749 211.388C316.627 212.939 314.812 214.292 311.974 214.292C307.321 214.292 303.889 211.157 303.889 205.679C303.889 200.531 307.321 197.066 311.974 197.066C314.812 197.066 316.726 198.221 317.749 199.838ZM312.238 211.883C315.538 211.883 317.782 209.342 317.782 205.745C317.782 202.049 315.538 199.475 312.238 199.475C308.905 199.475 306.661 202.016 306.661 205.679C306.661 209.342 308.905 211.883 312.238 211.883ZM331.896 214.292C326.847 214.292 323.547 210.827 323.547 205.679C323.547 200.564 326.781 197.066 331.533 197.066C336.285 197.066 339.387 200.069 339.519 205.052C339.519 205.415 339.486 205.811 339.453 206.207H326.385V206.438C326.484 209.639 328.497 211.883 331.698 211.883C334.074 211.883 335.922 210.629 336.483 208.451H339.222C338.562 211.817 335.79 214.292 331.896 214.292ZM326.55 203.963H336.615C336.351 201.059 334.371 199.442 331.566 199.442C329.091 199.442 326.814 201.224 326.55 203.963ZM342.607 214.094V190.994H345.313V214.094H342.607ZM178.858 247.619H179.716V250.094H178.231C175.987 250.094 175.228 249.137 175.195 247.487C174.139 249.005 172.456 250.292 169.552 250.292C165.856 250.292 163.348 248.444 163.348 245.375C163.348 242.009 165.691 240.128 170.113 240.128H175.063V238.973C175.063 236.795 173.512 235.475 170.872 235.475C168.496 235.475 166.912 236.597 166.582 238.313H163.876C164.272 235.013 166.945 233.066 171.004 233.066C175.294 233.066 177.769 235.211 177.769 239.138V246.497C177.769 247.388 178.099 247.619 178.858 247.619ZM175.063 243.23V242.405H169.849C167.44 242.405 166.087 243.296 166.087 245.21C166.087 246.86 167.506 247.982 169.75 247.982C173.116 247.982 175.063 246.035 175.063 243.23ZM195.062 236.168L195.425 233.264H197.768V249.269C197.768 254.12 195.194 256.892 189.419 256.892C185.129 256.892 182.126 254.879 181.697 251.183H184.469C184.931 253.295 186.812 254.483 189.617 254.483C193.148 254.483 195.062 252.833 195.062 249.17V247.19C193.94 249.104 192.125 250.292 189.287 250.292C184.634 250.292 181.202 247.157 181.202 241.679C181.202 236.531 184.634 233.066 189.287 233.066C192.125 233.066 194.006 234.287 195.062 236.168ZM189.551 247.883C192.851 247.883 195.095 245.342 195.095 241.745C195.095 238.049 192.851 235.475 189.551 235.475C186.218 235.475 183.974 238.016 183.974 241.679C183.974 245.342 186.218 247.883 189.551 247.883ZM209.704 233.066C213.499 233.066 216.502 235.145 216.502 240.722V250.094H213.796V240.887C213.796 237.389 212.179 235.541 209.242 235.541C206.074 235.541 204.16 237.884 204.16 241.679V250.094H201.454V233.264H203.797L204.16 235.541C205.15 234.254 206.866 233.066 209.704 233.066ZM227.514 250.292C222.597 250.292 219.165 246.794 219.165 241.679C219.165 236.564 222.597 233.066 227.514 233.066C232.431 233.066 235.863 236.564 235.863 241.679C235.863 246.794 232.431 250.292 227.514 250.292ZM227.514 247.883C230.847 247.883 233.091 245.276 233.091 241.679C233.091 238.082 230.847 235.475 227.514 235.475C224.181 235.475 221.937 238.082 221.937 241.679C221.937 245.276 224.181 247.883 227.514 247.883ZM238.209 244.55H240.981C241.08 246.53 242.829 247.982 245.634 247.982C248.01 247.982 249.693 246.959 249.693 245.408C249.693 243.296 247.845 243.131 245.337 242.834C241.575 242.372 238.572 241.613 238.572 238.115C238.572 235.046 241.377 233.033 245.172 233.066C249 233.099 251.772 234.881 252.036 238.379H249.264C249.066 236.663 247.482 235.376 245.172 235.376C242.829 235.376 241.245 236.366 241.245 237.917C241.245 239.765 243.027 239.996 245.469 240.293C249.297 240.755 252.366 241.481 252.366 245.21C252.366 248.345 249.363 250.292 245.634 250.292C241.278 250.292 238.275 248.246 238.209 244.55ZM256.623 245.705V235.739H253.587V233.264H256.623V228.545H259.329V233.264H263.685V235.739H259.329V245.672C259.329 247.091 259.824 247.619 261.276 247.619H263.949V250.094H261.012C257.778 250.094 256.623 248.675 256.623 245.705ZM267.68 230.426C266.69 230.426 265.931 229.7 265.931 228.677C265.931 227.654 266.69 226.928 267.68 226.928C268.67 226.928 269.429 227.654 269.429 228.677C269.429 229.7 268.67 230.426 267.68 230.426ZM266.294 250.094V233.264H269V250.094H266.294ZM280.264 250.292C275.347 250.292 272.113 246.959 272.113 241.712C272.113 236.564 275.446 233.066 280.33 233.066C284.455 233.066 287.062 235.376 287.755 239.072H284.917C284.422 236.828 282.772 235.475 280.297 235.475C277.063 235.475 274.885 238.049 274.885 241.712C274.885 245.375 277.063 247.883 280.297 247.883C282.706 247.883 284.356 246.497 284.884 244.352H287.755C287.095 247.982 284.356 250.292 280.264 250.292Z" fill="#333333"/>
<path d="M85.6177 281.094L81.9457 268.494H83.5837L86.5357 279.078L89.6317 268.494H91.2157L94.2037 279.078L97.1737 268.494H98.7937L95.1037 281.094H93.2317L90.3517 271.104L87.4897 281.094H85.6177ZM103.525 281.202C100.843 281.202 98.9706 279.294 98.9706 276.504C98.9706 273.714 100.843 271.806 103.525 271.806C106.207 271.806 108.079 273.714 108.079 276.504C108.079 279.294 106.207 281.202 103.525 281.202ZM103.525 279.888C105.343 279.888 106.567 278.466 106.567 276.504C106.567 274.542 105.343 273.12 103.525 273.12C101.707 273.12 100.483 274.542 100.483 276.504C100.483 278.466 101.707 279.888 103.525 279.888ZM114.019 271.914H114.433V273.354H113.695C111.769 273.354 111.247 274.956 111.247 276.414V281.094H109.771V271.914H111.049L111.247 273.3C111.679 272.598 112.381 271.914 114.019 271.914ZM115.713 281.094V268.494H117.189V276.792L121.797 271.914H123.615L120.033 275.712L123.867 281.094H122.085L119.043 276.774L117.189 278.682V281.094H115.713ZM130.373 270.366C129.833 270.366 129.419 269.97 129.419 269.412C129.419 268.854 129.833 268.458 130.373 268.458C130.913 268.458 131.327 268.854 131.327 269.412C131.327 269.97 130.913 270.366 130.373 270.366ZM129.617 281.094V271.914H131.093V281.094H129.617ZM137.615 271.806C139.685 271.806 141.323 272.94 141.323 275.982V281.094H139.847V276.072C139.847 274.164 138.965 273.156 137.363 273.156C135.635 273.156 134.591 274.434 134.591 276.504V281.094H133.115V271.914H134.393L134.591 273.156C135.131 272.454 136.067 271.806 137.615 271.806ZM150.58 281.148L146.998 271.914H148.564L151.39 279.24L154.126 271.914H155.692L151.462 282.642C150.886 284.118 150.544 284.694 149.248 284.694H147.484V283.344H148.798C149.644 283.344 149.788 283.128 150.13 282.264L150.58 281.148ZM160.618 281.202C157.936 281.202 156.064 279.294 156.064 276.504C156.064 273.714 157.936 271.806 160.618 271.806C163.3 271.806 165.172 273.714 165.172 276.504C165.172 279.294 163.3 281.202 160.618 281.202ZM160.618 279.888C162.436 279.888 163.66 278.466 163.66 276.504C163.66 274.542 162.436 273.12 160.618 273.12C158.8 273.12 157.576 274.542 157.576 276.504C157.576 278.466 158.8 279.888 160.618 279.888ZM173.291 276.504V271.914H174.767V281.094H173.489L173.291 279.87C172.751 280.554 171.869 281.202 170.357 281.202C168.341 281.202 166.739 280.068 166.739 277.026V271.914H168.215V276.936C168.215 278.844 169.079 279.852 170.609 279.852C172.283 279.852 173.291 278.574 173.291 276.504ZM181.027 271.914H181.441V273.354H180.703C178.777 273.354 178.255 274.956 178.255 276.414V281.094H176.779V271.914H178.057L178.255 273.3C178.687 272.598 179.389 271.914 181.027 271.914ZM192.057 271.806C194.595 271.806 196.467 273.516 196.467 276.504C196.467 279.312 194.595 281.202 192.057 281.202C190.509 281.202 189.465 280.572 188.907 279.69V284.694H187.431V271.914H188.709L188.907 273.39C189.519 272.544 190.509 271.806 192.057 271.806ZM191.913 279.888C193.731 279.888 194.955 278.502 194.955 276.504C194.955 274.506 193.731 273.12 191.913 273.12C190.113 273.12 188.889 274.506 188.889 276.468C188.889 278.484 190.113 279.888 191.913 279.888ZM202.402 271.914H202.816V273.354H202.078C200.152 273.354 199.63 274.956 199.63 276.414V281.094H198.154V271.914H199.432L199.63 273.3C200.062 272.598 200.764 271.914 202.402 271.914ZM207.798 281.202C205.044 281.202 203.244 279.312 203.244 276.504C203.244 273.714 205.008 271.806 207.6 271.806C210.192 271.806 211.884 273.444 211.956 276.162C211.956 276.36 211.938 276.576 211.92 276.792H204.792V276.918C204.846 278.664 205.944 279.888 207.69 279.888C208.986 279.888 209.994 279.204 210.3 278.016H211.794C211.434 279.852 209.922 281.202 207.798 281.202ZM204.882 275.568H210.372C210.228 273.984 209.148 273.102 207.618 273.102C206.268 273.102 205.026 274.074 204.882 275.568ZM212.563 273.264V271.914H214.219V270.888C214.219 269.268 214.903 268.494 216.613 268.494H218.287V269.844H216.703C215.965 269.844 215.695 270.15 215.695 270.852V271.914H218.287V273.264H215.695V281.094H214.219V273.264H212.563ZM223.161 281.202C220.407 281.202 218.607 279.312 218.607 276.504C218.607 273.714 220.371 271.806 222.963 271.806C225.555 271.806 227.247 273.444 227.319 276.162C227.319 276.36 227.301 276.576 227.283 276.792H220.155V276.918C220.209 278.664 221.307 279.888 223.053 279.888C224.349 279.888 225.357 279.204 225.663 278.016H227.157C226.797 279.852 225.285 281.202 223.161 281.202ZM220.245 275.568H225.735C225.591 273.984 224.511 273.102 222.981 273.102C221.631 273.102 220.389 274.074 220.245 275.568ZM233.252 271.914H233.666V273.354H232.928C231.002 273.354 230.48 274.956 230.48 276.414V281.094H229.004V271.914H230.282L230.48 273.3C230.912 272.598 231.614 271.914 233.252 271.914ZM239.193 271.914H239.607V273.354H238.869C236.943 273.354 236.421 274.956 236.421 276.414V281.094H234.945V271.914H236.223L236.421 273.3C236.853 272.598 237.555 271.914 239.193 271.914ZM244.589 281.202C241.835 281.202 240.035 279.312 240.035 276.504C240.035 273.714 241.799 271.806 244.391 271.806C246.983 271.806 248.675 273.444 248.747 276.162C248.747 276.36 248.729 276.576 248.711 276.792H241.583V276.918C241.637 278.664 242.735 279.888 244.481 279.888C245.777 279.888 246.785 279.204 247.091 278.016H248.585C248.225 279.852 246.713 281.202 244.589 281.202ZM241.673 275.568H247.163C247.019 273.984 245.939 273.102 244.409 273.102C243.059 273.102 241.817 274.074 241.673 275.568ZM257.667 273.318V268.494H259.143V281.094H257.865L257.667 279.618C257.055 280.464 256.065 281.202 254.517 281.202C251.979 281.202 250.107 279.492 250.107 276.504C250.107 273.696 251.979 271.806 254.517 271.806C256.065 271.806 257.109 272.436 257.667 273.318ZM254.661 279.888C256.461 279.888 257.685 278.502 257.685 276.54C257.685 274.524 256.461 273.12 254.661 273.12C252.843 273.12 251.619 274.506 251.619 276.504C251.619 278.502 252.843 279.888 254.661 279.888ZM270.095 281.202C267.341 281.202 265.541 279.312 265.541 276.504C265.541 273.714 267.305 271.806 269.897 271.806C272.489 271.806 274.181 273.444 274.253 276.162C274.253 276.36 274.235 276.576 274.217 276.792H267.089V276.918C267.143 278.664 268.241 279.888 269.987 279.888C271.283 279.888 272.291 279.204 272.597 278.016H274.091C273.731 279.852 272.219 281.202 270.095 281.202ZM267.179 275.568H272.669C272.525 273.984 271.445 273.102 269.915 273.102C268.565 273.102 267.323 274.074 267.179 275.568ZM280.437 271.806C282.507 271.806 284.145 272.94 284.145 275.982V281.094H282.669V276.072C282.669 274.164 281.787 273.156 280.185 273.156C278.457 273.156 277.413 274.434 277.413 276.504V281.094H275.937V271.914H277.215L277.413 273.156C277.953 272.454 278.889 271.806 280.437 271.806ZM288.213 281.094L284.775 271.914H286.359L289.131 279.42L291.885 271.914H293.433L289.995 281.094H288.213ZM295.291 270.366C294.751 270.366 294.337 269.97 294.337 269.412C294.337 268.854 294.751 268.458 295.291 268.458C295.831 268.458 296.245 268.854 296.245 269.412C296.245 269.97 295.831 270.366 295.291 270.366ZM294.535 281.094V271.914H296.011V281.094H294.535ZM302.281 271.914H302.695V273.354H301.957C300.031 273.354 299.509 274.956 299.509 276.414V281.094H298.033V271.914H299.311L299.509 273.3C299.941 272.598 300.643 271.914 302.281 271.914ZM307.677 281.202C304.995 281.202 303.123 279.294 303.123 276.504C303.123 273.714 304.995 271.806 307.677 271.806C310.359 271.806 312.231 273.714 312.231 276.504C312.231 279.294 310.359 281.202 307.677 281.202ZM307.677 279.888C309.495 279.888 310.719 278.466 310.719 276.504C310.719 274.542 309.495 273.12 307.677 273.12C305.859 273.12 304.635 274.542 304.635 276.504C304.635 278.466 305.859 279.888 307.677 279.888ZM318.424 271.806C320.494 271.806 322.132 272.94 322.132 275.982V281.094H320.656V276.072C320.656 274.164 319.774 273.156 318.172 273.156C316.444 273.156 315.4 274.434 315.4 276.504V281.094H313.924V271.914H315.202L315.4 273.156C315.94 272.454 316.876 271.806 318.424 271.806ZM334.255 271.806C336.163 271.806 337.729 272.904 337.729 275.802V281.094H336.253V275.892C336.253 274.092 335.461 273.156 334.075 273.156C332.545 273.156 331.609 274.308 331.609 276.18V281.094H330.133V275.892C330.133 274.092 329.323 273.156 327.919 273.156C326.407 273.156 325.489 274.416 325.489 276.252V281.094H324.013V271.914H325.291L325.489 273.174C325.975 272.508 326.749 271.806 328.171 271.806C329.449 271.806 330.547 272.382 331.069 273.552C331.627 272.562 332.617 271.806 334.255 271.806ZM343.747 281.202C340.993 281.202 339.193 279.312 339.193 276.504C339.193 273.714 340.957 271.806 343.549 271.806C346.141 271.806 347.833 273.444 347.905 276.162C347.905 276.36 347.887 276.576 347.869 276.792H340.741V276.918C340.795 278.664 341.893 279.888 343.639 279.888C344.935 279.888 345.943 279.204 346.249 278.016H347.743C347.383 279.852 345.871 281.202 343.747 281.202ZM340.831 275.568H346.321C346.177 273.984 345.097 273.102 343.567 273.102C342.217 273.102 340.975 274.074 340.831 275.568ZM354.09 271.806C356.16 271.806 357.798 272.94 357.798 275.982V281.094H356.322V276.072C356.322 274.164 355.44 273.156 353.838 273.156C352.11 273.156 351.066 274.434 351.066 276.504V281.094H349.59V271.914H350.868L351.066 273.156C351.606 272.454 352.542 271.806 354.09 271.806ZM360.363 278.7V273.264H358.707V271.914H360.363V269.34H361.839V271.914H364.215V273.264H361.839V278.682C361.839 279.456 362.109 279.744 362.901 279.744H364.359V281.094H362.757C360.993 281.094 360.363 280.32 360.363 278.7ZM167.767 304.094L164.797 294.914H166.345L168.631 302.384L171.043 294.914H172.411L174.697 302.384L177.091 294.914H178.585L175.525 304.094H173.905L171.691 297.272L169.387 304.094H167.767ZM180.497 293.366C179.957 293.366 179.543 292.97 179.543 292.412C179.543 291.854 179.957 291.458 180.497 291.458C181.037 291.458 181.451 291.854 181.451 292.412C181.451 292.97 181.037 293.366 180.497 293.366ZM179.741 304.094V294.914H181.217V304.094H179.741ZM183.923 301.7V296.264H182.267V294.914H183.923V292.34H185.399V294.914H187.775V296.264H185.399V301.682C185.399 302.456 185.669 302.744 186.461 302.744H187.919V304.094H186.317C184.553 304.094 183.923 303.32 183.923 301.7ZM193.698 294.806C195.75 294.806 197.424 295.94 197.424 298.982V304.094H195.948V299.072C195.948 297.164 195.03 296.156 193.446 296.156C191.736 296.156 190.674 297.434 190.674 299.504V304.094H189.198V291.494H190.674V296.426C191.214 295.562 192.15 294.806 193.698 294.806ZM212.134 302.744H212.602V304.094H211.792C210.568 304.094 210.154 303.572 210.136 302.672C209.56 303.5 208.642 304.202 207.058 304.202C205.042 304.202 203.674 303.194 203.674 301.52C203.674 299.684 204.952 298.658 207.364 298.658H210.064V298.028C210.064 296.84 209.218 296.12 207.778 296.12C206.482 296.12 205.618 296.732 205.438 297.668H203.962C204.178 295.868 205.636 294.806 207.85 294.806C210.19 294.806 211.54 295.976 211.54 298.118V302.132C211.54 302.618 211.72 302.744 212.134 302.744ZM210.064 300.35V299.9H207.22C205.906 299.9 205.168 300.386 205.168 301.43C205.168 302.33 205.942 302.942 207.166 302.942C209.002 302.942 210.064 301.88 210.064 300.35ZM218.237 294.806C220.307 294.806 221.945 295.94 221.945 298.982V304.094H220.469V299.072C220.469 297.164 219.587 296.156 217.985 296.156C216.257 296.156 215.213 297.434 215.213 299.504V304.094H213.737V294.914H215.015L215.213 296.156C215.753 295.454 216.689 294.806 218.237 294.806ZM226.157 304.148L222.575 294.914H224.141L226.967 302.24L229.703 294.914H231.269L227.039 305.642C226.463 307.118 226.121 307.694 224.825 307.694H223.061V306.344H224.375C225.221 306.344 225.365 306.128 225.707 305.264L226.157 304.148ZM247.323 294.806C249.231 294.806 250.797 295.904 250.797 298.802V304.094H249.321V298.892C249.321 297.092 248.529 296.156 247.143 296.156C245.613 296.156 244.677 297.308 244.677 299.18V304.094H243.201V298.892C243.201 297.092 242.391 296.156 240.987 296.156C239.475 296.156 238.557 297.416 238.557 299.252V304.094H237.081V294.914H238.359L238.557 296.174C239.043 295.508 239.817 294.806 241.239 294.806C242.517 294.806 243.615 295.382 244.137 296.552C244.695 295.562 245.685 294.806 247.323 294.806ZM256.815 304.202C254.133 304.202 252.261 302.294 252.261 299.504C252.261 296.714 254.133 294.806 256.815 294.806C259.497 294.806 261.369 296.714 261.369 299.504C261.369 302.294 259.497 304.202 256.815 304.202ZM256.815 302.888C258.633 302.888 259.857 301.466 259.857 299.504C259.857 297.542 258.633 296.12 256.815 296.12C254.997 296.12 253.773 297.542 253.773 299.504C253.773 301.466 254.997 302.888 256.815 302.888ZM270.297 296.318V291.494H271.773V304.094H270.495L270.297 302.618C269.685 303.464 268.695 304.202 267.147 304.202C264.609 304.202 262.737 302.492 262.737 299.504C262.737 296.696 264.609 294.806 267.147 294.806C268.695 294.806 269.739 295.436 270.297 296.318ZM267.291 302.888C269.091 302.888 270.315 301.502 270.315 299.54C270.315 297.524 269.091 296.12 267.291 296.12C265.473 296.12 264.249 297.506 264.249 299.504C264.249 301.502 265.473 302.888 267.291 302.888ZM278.014 304.202C275.26 304.202 273.46 302.312 273.46 299.504C273.46 296.714 275.224 294.806 277.816 294.806C280.408 294.806 282.1 296.444 282.172 299.162C282.172 299.36 282.154 299.576 282.136 299.792H275.008V299.918C275.062 301.664 276.16 302.888 277.906 302.888C279.202 302.888 280.21 302.204 280.516 301.016H282.01C281.65 302.852 280.138 304.202 278.014 304.202ZM275.098 298.568H280.588C280.444 296.984 279.364 296.102 277.834 296.102C276.484 296.102 275.242 297.074 275.098 298.568ZM283.856 304.094V291.494H285.332V304.094H283.856Z" fill="#7E7E7E"/>
<path d="M208.992 113.229L208.953 144.318L199.196 123.037L177.855 113.18L208.992 113.229Z" fill="#333333"/>
<path d="M223.529 88.0491L223.49 119.139L213.733 97.8577L192.393 88L223.529 88.0491Z" fill="#333333"/>
<path d="M252.603 88.0491L252.564 119.139L242.808 97.8577L221.467 88L252.603 88.0491Z" fill="#333333"/>
<path d="M267.144 113.229L267.105 144.318L257.349 123.037L236.008 113.18L267.144 113.229Z" fill="#333333"/>
<path d="M252.603 138.408L252.564 169.498L242.808 148.217L221.467 138.359L252.603 138.408Z" fill="#333333"/>
<path d="M223.529 138.408L223.49 169.498L213.733 148.217L192.393 138.359L223.529 138.408Z" fill="#333333"/>
<path d="M238.068 113.229L238.029 144.318L228.272 123.037L206.932 113.18L238.068 113.229Z" fill="#333333"/>
</svg>
