<svg width="451" height="339" viewBox="0 0 451 339" fill="none" xmlns="http://www.w3.org/2000/svg">
<path d="M97.5008 214.094V190.994H106.378C110.998 190.994 114.034 193.766 114.034 198.089C114.034 202.412 110.998 205.217 106.378 205.217H100.372V214.094H97.5008ZM106.147 193.634H100.372V202.577H106.114C109.15 202.577 111.097 200.828 111.097 198.089C111.097 195.35 109.183 193.634 106.147 193.634ZM128.48 205.679V197.264H131.186V214.094H128.843L128.48 211.85C127.49 213.104 125.873 214.292 123.101 214.292C119.405 214.292 116.468 212.213 116.468 206.636V197.264H119.174V206.471C119.174 209.969 120.758 211.817 123.563 211.817C126.632 211.817 128.48 209.474 128.48 205.679ZM143.355 197.066C148.008 197.066 151.44 200.201 151.44 205.679C151.44 210.827 148.008 214.292 143.355 214.292C140.517 214.292 138.603 213.137 137.58 211.52L137.217 214.094H134.874V190.994H137.58V199.97C138.702 198.419 140.517 197.066 143.355 197.066ZM143.091 211.883C146.424 211.883 148.668 209.342 148.668 205.679C148.668 202.016 146.424 199.475 143.091 199.475C139.791 199.475 137.547 202.016 137.547 205.613C137.547 209.309 139.791 211.883 143.091 211.883ZM154.533 214.094V190.994H157.239V214.094H154.533ZM162.332 194.426C161.342 194.426 160.583 193.7 160.583 192.677C160.583 191.654 161.342 190.928 162.332 190.928C163.322 190.928 164.081 191.654 164.081 192.677C164.081 193.7 163.322 194.426 162.332 194.426ZM160.946 214.094V197.264H163.652V214.094H160.946ZM174.916 214.292C169.999 214.292 166.765 210.959 166.765 205.712C166.765 200.564 170.098 197.066 174.982 197.066C179.107 197.066 181.714 199.376 182.407 203.072H179.569C179.074 200.828 177.424 199.475 174.949 199.475C171.715 199.475 169.537 202.049 169.537 205.712C169.537 209.375 171.715 211.883 174.949 211.883C177.358 211.883 179.008 210.497 179.536 208.352H182.407C181.747 211.982 179.008 214.292 174.916 214.292ZM208.893 211.619H209.751V214.094H208.266C206.022 214.094 205.263 213.137 205.23 211.487C204.174 213.005 202.491 214.292 199.587 214.292C195.891 214.292 193.383 212.444 193.383 209.375C193.383 206.009 195.726 204.128 200.148 204.128H205.098V202.973C205.098 200.795 203.547 199.475 200.907 199.475C198.531 199.475 196.947 200.597 196.617 202.313H193.911C194.307 199.013 196.98 197.066 201.039 197.066C205.329 197.066 207.804 199.211 207.804 203.138V210.497C207.804 211.388 208.134 211.619 208.893 211.619ZM205.098 207.23V206.405H199.884C197.475 206.405 196.122 207.296 196.122 209.21C196.122 210.86 197.541 211.982 199.785 211.982C203.151 211.982 205.098 210.035 205.098 207.23ZM220.081 197.066C223.876 197.066 226.879 199.145 226.879 204.722V214.094H224.173V204.887C224.173 201.389 222.556 199.541 219.619 199.541C216.451 199.541 214.537 201.884 214.537 205.679V214.094H211.831V197.264H214.174L214.537 199.541C215.527 198.254 217.243 197.066 220.081 197.066ZM243.402 199.838V190.994H246.108V214.094H243.765L243.402 211.388C242.28 212.939 240.465 214.292 237.627 214.292C232.974 214.292 229.542 211.157 229.542 205.679C229.542 200.531 232.974 197.066 237.627 197.066C240.465 197.066 242.379 198.221 243.402 199.838ZM237.891 211.883C241.191 211.883 243.435 209.342 243.435 205.745C243.435 202.049 241.191 199.475 237.891 199.475C234.558 199.475 232.314 202.016 232.314 205.679C232.314 209.342 234.558 211.883 237.891 211.883ZM266.912 197.066C271.565 197.066 274.997 200.201 274.997 205.679C274.997 210.827 271.565 214.292 266.912 214.292C264.074 214.292 262.16 213.137 261.137 211.52V220.694H258.431V197.264H260.774L261.137 199.97C262.259 198.419 264.074 197.066 266.912 197.066ZM266.648 211.883C269.981 211.883 272.225 209.342 272.225 205.679C272.225 202.016 269.981 199.475 266.648 199.475C263.348 199.475 261.104 202.016 261.104 205.613C261.104 209.309 263.348 211.883 266.648 211.883ZM285.877 197.264H286.636V199.904H285.283C281.752 199.904 280.795 202.841 280.795 205.514V214.094H278.089V197.264H280.432L280.795 199.805C281.587 198.518 282.874 197.264 285.877 197.264ZM290.368 194.426C289.378 194.426 288.619 193.7 288.619 192.677C288.619 191.654 289.378 190.928 290.368 190.928C291.358 190.928 292.117 191.654 292.117 192.677C292.117 193.7 291.358 194.426 290.368 194.426ZM288.982 214.094V197.264H291.688V214.094H288.982ZM300.015 214.094L293.712 197.264H296.616L301.698 211.025L306.747 197.264H309.585L303.282 214.094H300.015ZM325.682 211.619H326.54V214.094H325.055C322.811 214.094 322.052 213.137 322.019 211.487C320.963 213.005 319.28 214.292 316.376 214.292C312.68 214.292 310.172 212.444 310.172 209.375C310.172 206.009 312.515 204.128 316.937 204.128H321.887V202.973C321.887 200.795 320.336 199.475 317.696 199.475C315.32 199.475 313.736 200.597 313.406 202.313H310.7C311.096 199.013 313.769 197.066 317.828 197.066C322.118 197.066 324.593 199.211 324.593 203.138V210.497C324.593 211.388 324.923 211.619 325.682 211.619ZM321.887 207.23V206.405H316.673C314.264 206.405 312.911 207.296 312.911 209.21C312.911 210.86 314.33 211.982 316.574 211.982C319.94 211.982 321.887 210.035 321.887 207.23ZM329.874 209.705V199.739H326.838V197.264H329.874V192.545H332.58V197.264H336.936V199.739H332.58V209.672C332.58 211.091 333.075 211.619 334.527 211.619H337.2V214.094H334.263C331.029 214.094 329.874 212.675 329.874 209.705ZM346.881 214.292C341.832 214.292 338.532 210.827 338.532 205.679C338.532 200.564 341.766 197.066 346.518 197.066C351.27 197.066 354.372 200.069 354.504 205.052C354.504 205.415 354.471 205.811 354.438 206.207H341.37V206.438C341.469 209.639 343.482 211.883 346.683 211.883C349.059 211.883 350.907 210.629 351.468 208.451H354.207C353.547 211.817 350.775 214.292 346.881 214.292ZM341.535 203.963H351.6C351.336 201.059 349.356 199.442 346.551 199.442C344.076 199.442 341.799 201.224 341.535 203.963ZM144.757 235.838V226.994H147.463V250.094H145.12L144.757 247.388C143.635 248.939 141.82 250.292 138.982 250.292C134.329 250.292 130.897 247.157 130.897 241.679C130.897 236.531 134.329 233.066 138.982 233.066C141.82 233.066 143.734 234.221 144.757 235.838ZM139.246 247.883C142.546 247.883 144.79 245.342 144.79 241.745C144.79 238.049 142.546 235.475 139.246 235.475C135.913 235.475 133.669 238.016 133.669 241.679C133.669 245.342 135.913 247.883 139.246 247.883ZM158.904 250.292C153.855 250.292 150.555 246.827 150.555 241.679C150.555 236.564 153.789 233.066 158.541 233.066C163.293 233.066 166.395 236.069 166.527 241.052C166.527 241.415 166.494 241.811 166.461 242.207H153.393V242.438C153.492 245.639 155.505 247.883 158.706 247.883C161.082 247.883 162.93 246.629 163.491 244.451H166.23C165.57 247.817 162.798 250.292 158.904 250.292ZM153.558 239.963H163.623C163.359 237.059 161.379 235.442 158.574 235.442C156.099 235.442 153.822 237.224 153.558 239.963ZM178.096 233.066C182.749 233.066 186.181 236.201 186.181 241.679C186.181 246.827 182.749 250.292 178.096 250.292C175.258 250.292 173.344 249.137 172.321 247.52V256.694H169.615V233.264H171.958L172.321 235.97C173.443 234.419 175.258 233.066 178.096 233.066ZM177.832 247.883C181.165 247.883 183.409 245.342 183.409 241.679C183.409 238.016 181.165 235.475 177.832 235.475C174.532 235.475 172.288 238.016 172.288 241.613C172.288 245.309 174.532 247.883 177.832 247.883ZM189.273 250.094V226.994H191.979V250.094H189.273ZM203.441 250.292C198.524 250.292 195.092 246.794 195.092 241.679C195.092 236.564 198.524 233.066 203.441 233.066C208.358 233.066 211.79 236.564 211.79 241.679C211.79 246.794 208.358 250.292 203.441 250.292ZM203.441 247.883C206.774 247.883 209.018 245.276 209.018 241.679C209.018 238.082 206.774 235.475 203.441 235.475C200.108 235.475 197.864 238.082 197.864 241.679C197.864 245.276 200.108 247.883 203.441 247.883ZM219.036 250.193L212.469 233.264H215.34L220.521 246.695L225.537 233.264H228.408L220.653 252.932C219.597 255.638 218.97 256.694 216.594 256.694H213.36V254.219H215.769C217.32 254.219 217.584 253.823 218.211 252.239L219.036 250.193ZM249.203 233.066C252.701 233.066 255.572 235.079 255.572 240.392V250.094H252.866V240.557C252.866 237.257 251.414 235.541 248.873 235.541C246.068 235.541 244.352 237.653 244.352 241.085V250.094H241.646V240.557C241.646 237.257 240.161 235.541 237.587 235.541C234.815 235.541 233.132 237.851 233.132 241.217V250.094H230.426V233.264H232.769L233.132 235.574C234.023 234.353 235.442 233.066 238.049 233.066C240.392 233.066 242.405 234.122 243.362 236.267C244.385 234.452 246.2 233.066 249.203 233.066ZM266.605 250.292C261.556 250.292 258.256 246.827 258.256 241.679C258.256 236.564 261.49 233.066 266.242 233.066C270.994 233.066 274.096 236.069 274.228 241.052C274.228 241.415 274.195 241.811 274.162 242.207H261.094V242.438C261.193 245.639 263.206 247.883 266.407 247.883C268.783 247.883 270.631 246.629 271.192 244.451H273.931C273.271 247.817 270.499 250.292 266.605 250.292ZM261.259 239.963H271.324C271.06 237.059 269.08 235.442 266.275 235.442C263.8 235.442 261.523 237.224 261.259 239.963ZM285.566 233.066C289.361 233.066 292.364 235.145 292.364 240.722V250.094H289.658V240.887C289.658 237.389 288.041 235.541 285.104 235.541C281.936 235.541 280.022 237.884 280.022 241.679V250.094H277.316V233.264H279.659L280.022 235.541C281.012 234.254 282.728 233.066 285.566 233.066ZM297.068 245.705V235.739H294.032V233.264H297.068V228.545H299.774V233.264H304.13V235.739H299.774V245.672C299.774 247.091 300.269 247.619 301.721 247.619H304.394V250.094H301.457C298.223 250.094 297.068 248.675 297.068 245.705ZM306.046 244.55H308.818C308.917 246.53 310.666 247.982 313.471 247.982C315.847 247.982 317.53 246.959 317.53 245.408C317.53 243.296 315.682 243.131 313.174 242.834C309.412 242.372 306.409 241.613 306.409 238.115C306.409 235.046 309.214 233.033 313.009 233.066C316.837 233.099 319.609 234.881 319.873 238.379H317.101C316.903 236.663 315.319 235.376 313.009 235.376C310.666 235.376 309.082 236.366 309.082 237.917C309.082 239.765 310.864 239.996 313.306 240.293C317.134 240.755 320.203 241.481 320.203 245.21C320.203 248.345 317.2 250.292 313.471 250.292C309.115 250.292 306.112 248.246 306.046 244.55Z" fill="#333333"/>
<path d="M101.262 281.094L97.5902 268.494H99.2282L102.18 279.078L105.276 268.494H106.86L109.848 279.078L112.818 268.494H114.438L110.748 281.094H108.876L105.996 271.104L103.134 281.094H101.262ZM119.169 281.202C116.415 281.202 114.615 279.312 114.615 276.504C114.615 273.714 116.379 271.806 118.971 271.806C121.563 271.806 123.255 273.444 123.327 276.162C123.327 276.36 123.309 276.576 123.291 276.792H116.163V276.918C116.217 278.664 117.315 279.888 119.061 279.888C120.357 279.888 121.365 279.204 121.671 278.016H123.165C122.805 279.852 121.293 281.202 119.169 281.202ZM116.253 275.568H121.743C121.599 273.984 120.519 273.102 118.989 273.102C117.639 273.102 116.397 274.074 116.253 275.568ZM133.952 281.202C131.27 281.202 129.398 279.294 129.398 276.504C129.398 273.714 131.27 271.806 133.952 271.806C136.634 271.806 138.506 273.714 138.506 276.504C138.506 279.294 136.634 281.202 133.952 281.202ZM133.952 279.888C135.77 279.888 136.994 278.466 136.994 276.504C136.994 274.542 135.77 273.12 133.952 273.12C132.134 273.12 130.91 274.542 130.91 276.504C130.91 278.466 132.134 279.888 133.952 279.888ZM149.939 269.844H148.337C147.599 269.844 147.329 270.15 147.329 270.852V271.914H149.921V273.264H147.329V281.094H145.853V273.264H142.253V281.094H140.777V273.264H139.121V271.914H140.777V270.888C140.777 269.268 141.461 268.494 143.171 268.494H144.683V269.844H143.261C142.523 269.844 142.253 270.15 142.253 270.852V271.914H145.853V270.888C145.853 269.268 146.537 268.494 148.247 268.494H149.939V269.844ZM154.818 281.202C152.064 281.202 150.264 279.312 150.264 276.504C150.264 273.714 152.028 271.806 154.62 271.806C157.212 271.806 158.904 273.444 158.976 276.162C158.976 276.36 158.958 276.576 158.94 276.792H151.812V276.918C151.866 278.664 152.964 279.888 154.71 279.888C156.006 279.888 157.014 279.204 157.32 278.016H158.814C158.454 279.852 156.942 281.202 154.818 281.202ZM151.902 275.568H157.392C157.248 273.984 156.168 273.102 154.638 273.102C153.288 273.102 152.046 274.074 151.902 275.568ZM164.908 271.914H165.322V273.354H164.584C162.658 273.354 162.136 274.956 162.136 276.414V281.094H160.66V271.914H161.938L162.136 273.3C162.568 272.598 163.27 271.914 164.908 271.914ZM175.938 271.806C178.476 271.806 180.348 273.516 180.348 276.504C180.348 279.312 178.476 281.202 175.938 281.202C174.39 281.202 173.346 280.572 172.788 279.69V284.694H171.312V271.914H172.59L172.788 273.39C173.4 272.544 174.39 271.806 175.938 271.806ZM175.794 279.888C177.612 279.888 178.836 278.502 178.836 276.504C178.836 274.506 177.612 273.12 175.794 273.12C173.994 273.12 172.77 274.506 172.77 276.468C172.77 278.484 173.994 279.888 175.794 279.888ZM188.461 276.504V271.914H189.937V281.094H188.659L188.461 279.87C187.921 280.554 187.039 281.202 185.527 281.202C183.511 281.202 181.909 280.068 181.909 277.026V271.914H183.385V276.936C183.385 278.844 184.249 279.852 185.779 279.852C187.453 279.852 188.461 278.574 188.461 276.504ZM196.575 271.806C199.113 271.806 200.985 273.516 200.985 276.504C200.985 279.312 199.113 281.202 196.575 281.202C195.027 281.202 193.983 280.572 193.425 279.69L193.227 281.094H191.949V268.494H193.425V273.39C194.037 272.544 195.027 271.806 196.575 271.806ZM196.431 279.888C198.249 279.888 199.473 278.502 199.473 276.504C199.473 274.506 198.249 273.12 196.431 273.12C194.631 273.12 193.407 274.506 193.407 276.468C193.407 278.484 194.631 279.888 196.431 279.888ZM202.672 281.094V268.494H204.148V281.094H202.672ZM206.926 270.366C206.386 270.366 205.972 269.97 205.972 269.412C205.972 268.854 206.386 268.458 206.926 268.458C207.466 268.458 207.88 268.854 207.88 269.412C207.88 269.97 207.466 270.366 206.926 270.366ZM206.17 281.094V271.914H207.646V281.094H206.17ZM213.79 281.202C211.108 281.202 209.344 279.384 209.344 276.522C209.344 273.714 211.162 271.806 213.826 271.806C216.076 271.806 217.498 273.066 217.876 275.082H216.328C216.058 273.858 215.158 273.12 213.808 273.12C212.044 273.12 210.856 274.524 210.856 276.522C210.856 278.52 212.044 279.888 213.808 279.888C215.122 279.888 216.022 279.132 216.31 277.962H217.876C217.516 279.942 216.022 281.202 213.79 281.202ZM228.327 281.202C225.645 281.202 223.881 279.384 223.881 276.522C223.881 273.714 225.699 271.806 228.363 271.806C230.613 271.806 232.035 273.066 232.413 275.082H230.865C230.595 273.858 229.695 273.12 228.345 273.12C226.581 273.12 225.393 274.524 225.393 276.522C225.393 278.52 226.581 279.888 228.345 279.888C229.659 279.888 230.559 279.132 230.847 277.962H232.413C232.053 279.942 230.559 281.202 228.327 281.202ZM234.031 281.094V268.494H235.507V281.094H234.031ZM241.759 281.202C239.077 281.202 237.205 279.294 237.205 276.504C237.205 273.714 239.077 271.806 241.759 271.806C244.441 271.806 246.313 273.714 246.313 276.504C246.313 279.294 244.441 281.202 241.759 281.202ZM241.759 279.888C243.577 279.888 244.801 278.466 244.801 276.504C244.801 274.542 243.577 273.12 241.759 273.12C239.941 273.12 238.717 274.542 238.717 276.504C238.717 278.466 239.941 279.888 241.759 279.888ZM254.432 276.504V271.914H255.908V281.094H254.63L254.432 279.87C253.892 280.554 253.01 281.202 251.498 281.202C249.482 281.202 247.88 280.068 247.88 277.026V271.914H249.356V276.936C249.356 278.844 250.22 279.852 251.75 279.852C253.424 279.852 254.432 278.574 254.432 276.504ZM265.156 273.318V268.494H266.632V281.094H265.354L265.156 279.618C264.544 280.464 263.554 281.202 262.006 281.202C259.468 281.202 257.596 279.492 257.596 276.504C257.596 273.696 259.468 271.806 262.006 271.806C263.554 271.806 264.598 272.436 265.156 273.318ZM262.15 279.888C263.95 279.888 265.174 278.502 265.174 276.54C265.174 274.524 263.95 273.12 262.15 273.12C260.332 273.12 259.108 274.506 259.108 276.504C259.108 278.502 260.332 279.888 262.15 279.888ZM269.308 279.204C270.19 279.204 270.73 280.05 270.73 281.04C270.73 282.57 269.776 283.488 268.192 283.524V282.678C269.344 282.66 269.704 281.85 269.704 281.238C269.704 281.148 269.704 281.076 269.686 281.004C269.542 281.148 269.29 281.22 269.074 281.22C268.534 281.22 268.12 280.896 268.12 280.248C268.12 279.654 268.552 279.204 269.308 279.204ZM280.752 281.094L276.216 268.494H277.872L281.724 279.24L285.558 268.494H287.178L282.642 281.094H280.752ZM288.563 281.094V268.494H293.405C295.925 268.494 297.581 270.006 297.581 272.364C297.581 274.722 295.925 276.252 293.405 276.252H290.129V281.094H288.563ZM293.279 269.934H290.129V274.812H293.261C294.917 274.812 295.979 273.858 295.979 272.364C295.979 270.87 294.935 269.934 293.279 269.934ZM304.669 281.202C301.051 281.202 298.783 278.646 298.783 274.794C298.783 270.978 301.141 268.386 304.795 268.386C307.585 268.386 309.619 270.006 310.087 272.616H308.431C307.945 270.87 306.613 269.826 304.723 269.826C302.077 269.826 300.385 271.878 300.385 274.794C300.385 277.692 302.005 279.762 304.651 279.762C306.595 279.762 307.945 278.736 308.413 276.972H310.069C309.601 279.582 307.513 281.202 304.669 281.202ZM311.812 279.204C312.694 279.204 313.234 280.05 313.234 281.04C313.234 282.57 312.28 283.488 310.696 283.524V282.678C311.848 282.66 312.208 281.85 312.208 281.238C312.208 281.148 312.208 281.076 312.19 281.004C312.046 281.148 311.794 281.22 311.578 281.22C311.038 281.22 310.624 280.896 310.624 280.248C310.624 279.654 311.056 279.204 311.812 279.204ZM327.684 279.744H328.152V281.094H327.342C326.118 281.094 325.704 280.572 325.686 279.672C325.11 280.5 324.192 281.202 322.608 281.202C320.592 281.202 319.224 280.194 319.224 278.52C319.224 276.684 320.502 275.658 322.914 275.658H325.614V275.028C325.614 273.84 324.768 273.12 323.328 273.12C322.032 273.12 321.168 273.732 320.988 274.668H319.512C319.728 272.868 321.186 271.806 323.4 271.806C325.74 271.806 327.09 272.976 327.09 275.118V279.132C327.09 279.618 327.27 279.744 327.684 279.744ZM325.614 277.35V276.9H322.77C321.456 276.9 320.718 277.386 320.718 278.43C320.718 279.33 321.492 279.942 322.716 279.942C324.552 279.942 325.614 278.88 325.614 277.35ZM333.787 271.806C335.857 271.806 337.495 272.94 337.495 275.982V281.094H336.019V276.072C336.019 274.164 335.137 273.156 333.535 273.156C331.807 273.156 330.763 274.434 330.763 276.504V281.094H329.287V271.914H330.565L330.763 273.156C331.303 272.454 332.239 271.806 333.787 271.806ZM346.507 273.318V268.494H347.983V281.094H346.705L346.507 279.618C345.895 280.464 344.905 281.202 343.357 281.202C340.819 281.202 338.947 279.492 338.947 276.504C338.947 273.696 340.819 271.806 343.357 271.806C344.905 271.806 345.949 272.436 346.507 273.318ZM343.501 279.888C345.301 279.888 346.525 278.502 346.525 276.54C346.525 274.524 345.301 273.12 343.501 273.12C341.683 273.12 340.459 274.506 340.459 276.504C340.459 278.502 341.683 279.888 343.501 279.888ZM146.002 304.202C143.32 304.202 141.448 302.294 141.448 299.504C141.448 296.714 143.32 294.806 146.002 294.806C148.684 294.806 150.556 296.714 150.556 299.504C150.556 302.294 148.684 304.202 146.002 304.202ZM146.002 302.888C147.82 302.888 149.044 301.466 149.044 299.504C149.044 297.542 147.82 296.12 146.002 296.12C144.184 296.12 142.96 297.542 142.96 299.504C142.96 301.466 144.184 302.888 146.002 302.888ZM156.749 294.806C158.819 294.806 160.457 295.94 160.457 298.982V304.094H158.981V299.072C158.981 297.164 158.099 296.156 156.497 296.156C154.769 296.156 153.725 297.434 153.725 299.504V304.094H152.249V294.914H153.527L153.725 296.156C154.265 295.454 155.201 294.806 156.749 294.806ZM168.261 299.594H162.267V298.352H168.261V299.594ZM174.822 294.806C177.36 294.806 179.232 296.516 179.232 299.504C179.232 302.312 177.36 304.202 174.822 304.202C173.274 304.202 172.23 303.572 171.672 302.69V307.694H170.196V294.914H171.474L171.672 296.39C172.284 295.544 173.274 294.806 174.822 294.806ZM174.678 302.888C176.496 302.888 177.72 301.502 177.72 299.504C177.72 297.506 176.496 296.12 174.678 296.12C172.878 296.12 171.654 297.506 171.654 299.468C171.654 301.484 172.878 302.888 174.678 302.888ZM185.167 294.914H185.581V296.354H184.843C182.917 296.354 182.395 297.956 182.395 299.414V304.094H180.919V294.914H182.197L182.395 296.3C182.827 295.598 183.529 294.914 185.167 294.914ZM190.563 304.202C187.809 304.202 186.009 302.312 186.009 299.504C186.009 296.714 187.773 294.806 190.365 294.806C192.957 294.806 194.649 296.444 194.721 299.162C194.721 299.36 194.703 299.576 194.685 299.792H187.557V299.918C187.611 301.664 188.709 302.888 190.455 302.888C191.751 302.888 192.759 302.204 193.065 301.016H194.559C194.199 302.852 192.687 304.202 190.563 304.202ZM187.647 298.568H193.137C192.993 296.984 191.913 296.102 190.383 296.102C189.033 296.102 187.791 297.074 187.647 298.568ZM206.647 294.806C208.555 294.806 210.121 295.904 210.121 298.802V304.094H208.645V298.892C208.645 297.092 207.853 296.156 206.467 296.156C204.937 296.156 204.001 297.308 204.001 299.18V304.094H202.525V298.892C202.525 297.092 201.715 296.156 200.311 296.156C198.799 296.156 197.881 297.416 197.881 299.252V304.094H196.405V294.914H197.683L197.881 296.174C198.367 295.508 199.141 294.806 200.563 294.806C201.841 294.806 202.939 295.382 203.461 296.552C204.019 295.562 205.009 294.806 206.647 294.806ZM212.77 293.366C212.23 293.366 211.816 292.97 211.816 292.412C211.816 291.854 212.23 291.458 212.77 291.458C213.31 291.458 213.724 291.854 213.724 292.412C213.724 292.97 213.31 293.366 212.77 293.366ZM212.014 304.094V294.914H213.49V304.094H212.014ZM215.134 301.07H216.646C216.7 302.15 217.654 302.942 219.184 302.942C220.48 302.942 221.398 302.384 221.398 301.538C221.398 300.386 220.39 300.296 219.022 300.134C216.97 299.882 215.332 299.468 215.332 297.56C215.332 295.886 216.862 294.788 218.932 294.806C221.02 294.824 222.532 295.796 222.676 297.704H221.164C221.056 296.768 220.192 296.066 218.932 296.066C217.654 296.066 216.79 296.606 216.79 297.452C216.79 298.46 217.762 298.586 219.094 298.748C221.182 299 222.856 299.396 222.856 301.43C222.856 303.14 221.218 304.202 219.184 304.202C216.808 304.202 215.17 303.086 215.134 301.07ZM228.725 304.202C225.971 304.202 224.171 302.312 224.171 299.504C224.171 296.714 225.935 294.806 228.527 294.806C231.119 294.806 232.811 296.444 232.883 299.162C232.883 299.36 232.865 299.576 232.847 299.792H225.719V299.918C225.773 301.664 226.871 302.888 228.617 302.888C229.913 302.888 230.921 302.204 231.227 301.016H232.721C232.361 302.852 230.849 304.202 228.725 304.202ZM225.809 298.568H231.299C231.155 296.984 230.075 296.102 228.545 296.102C227.195 296.102 225.953 297.074 225.809 298.568ZM234.154 301.07H235.666C235.72 302.15 236.674 302.942 238.204 302.942C239.5 302.942 240.418 302.384 240.418 301.538C240.418 300.386 239.41 300.296 238.042 300.134C235.99 299.882 234.352 299.468 234.352 297.56C234.352 295.886 235.882 294.788 237.952 294.806C240.04 294.824 241.552 295.796 241.696 297.704H240.184C240.076 296.768 239.212 296.066 237.952 296.066C236.674 296.066 235.81 296.606 235.81 297.452C235.81 298.46 236.782 298.586 238.114 298.748C240.202 299 241.876 299.396 241.876 301.43C241.876 303.14 240.238 304.202 238.204 304.202C235.828 304.202 234.19 303.086 234.154 301.07ZM247.847 301.07H249.359C249.413 302.15 250.367 302.942 251.897 302.942C253.193 302.942 254.111 302.384 254.111 301.538C254.111 300.386 253.103 300.296 251.735 300.134C249.683 299.882 248.045 299.468 248.045 297.56C248.045 295.886 249.575 294.788 251.645 294.806C253.733 294.824 255.245 295.796 255.389 297.704H253.877C253.769 296.768 252.905 296.066 251.645 296.066C250.367 296.066 249.503 296.606 249.503 297.452C249.503 298.46 250.475 298.586 251.807 298.748C253.895 299 255.569 299.396 255.569 301.43C255.569 303.14 253.931 304.202 251.897 304.202C249.521 304.202 247.883 303.086 247.847 301.07ZM263.634 299.504V294.914H265.11V304.094H263.832L263.634 302.87C263.094 303.554 262.212 304.202 260.7 304.202C258.684 304.202 257.082 303.068 257.082 300.026V294.914H258.558V299.936C258.558 301.844 259.422 302.852 260.952 302.852C262.626 302.852 263.634 301.574 263.634 299.504ZM271.748 294.806C274.286 294.806 276.158 296.516 276.158 299.504C276.158 302.312 274.286 304.202 271.748 304.202C270.2 304.202 269.156 303.572 268.598 302.69V307.694H267.122V294.914H268.4L268.598 296.39C269.21 295.544 270.2 294.806 271.748 294.806ZM271.604 302.888C273.422 302.888 274.646 301.502 274.646 299.504C274.646 297.506 273.422 296.12 271.604 296.12C269.804 296.12 268.58 297.506 268.58 299.468C268.58 301.484 269.804 302.888 271.604 302.888ZM282.47 294.806C285.008 294.806 286.88 296.516 286.88 299.504C286.88 302.312 285.008 304.202 282.47 304.202C280.922 304.202 279.878 303.572 279.32 302.69V307.694H277.844V294.914H279.122L279.32 296.39C279.932 295.544 280.922 294.806 282.47 294.806ZM282.326 302.888C284.144 302.888 285.368 301.502 285.368 299.504C285.368 297.506 284.144 296.12 282.326 296.12C280.526 296.12 279.302 297.506 279.302 299.468C279.302 301.484 280.526 302.888 282.326 302.888ZM292.797 304.202C290.115 304.202 288.243 302.294 288.243 299.504C288.243 296.714 290.115 294.806 292.797 294.806C295.479 294.806 297.351 296.714 297.351 299.504C297.351 302.294 295.479 304.202 292.797 304.202ZM292.797 302.888C294.615 302.888 295.839 301.466 295.839 299.504C295.839 297.542 294.615 296.12 292.797 296.12C290.979 296.12 289.755 297.542 289.755 299.504C289.755 301.466 290.979 302.888 292.797 302.888ZM303.292 294.914H303.706V296.354H302.968C301.042 296.354 300.52 297.956 300.52 299.414V304.094H299.044V294.914H300.322L300.52 296.3C300.952 295.598 301.654 294.914 303.292 294.914ZM305.968 301.7V296.264H304.312V294.914H305.968V292.34H307.444V294.914H309.82V296.264H307.444V301.682C307.444 302.456 307.714 302.744 308.506 302.744H309.964V304.094H308.362C306.598 304.094 305.968 303.32 305.968 301.7Z" fill="#7E7E7E"/>
<path d="M267.127 78.5972L267.087 110.428L257.098 88.6396L235.248 78.5469L267.127 78.5972Z" fill="#4D80E6"/>
<path d="M215.752 105.785L215.712 137.616L205.723 115.827L183.873 105.734L215.752 105.785Z" fill="#333333"/>
<path d="M215.752 137.667L215.712 169.498L205.723 147.71L183.873 137.617L215.752 137.667Z" fill="#333333"/>
<path d="M247.631 137.667L247.591 169.498L237.602 147.71L215.752 137.617L247.631 137.667Z" fill="#333333"/>
</svg>
