<svg width="451" height="339" viewBox="0 0 451 339" fill="none" xmlns="http://www.w3.org/2000/svg">
<path d="M103.14 214.094V190.994H117.858V193.634H106.011V201.026H115.878V203.666H106.011V211.454H118.287V214.094H103.14ZM129.364 197.066C133.159 197.066 136.162 199.145 136.162 204.722V214.094H133.456V204.887C133.456 201.389 131.839 199.541 128.902 199.541C125.734 199.541 123.82 201.884 123.82 205.679V214.094H121.114V197.264H123.457L123.82 199.541C124.81 198.254 126.526 197.066 129.364 197.066ZM140.866 209.705V199.739H137.83V197.264H140.866V192.545H143.572V197.264H147.928V199.739H143.572V209.672C143.572 211.091 144.067 211.619 145.519 211.619H148.192V214.094H145.255C142.021 214.094 140.866 212.675 140.866 209.705ZM157.873 214.292C152.824 214.292 149.524 210.827 149.524 205.679C149.524 200.564 152.758 197.066 157.51 197.066C162.262 197.066 165.364 200.069 165.496 205.052C165.496 205.415 165.463 205.811 165.43 206.207H152.362V206.438C152.461 209.639 154.474 211.883 157.675 211.883C160.051 211.883 161.899 210.629 162.46 208.451H165.199C164.539 211.817 161.767 214.292 157.873 214.292ZM152.527 203.963H162.592C162.328 201.059 160.348 199.442 157.543 199.442C155.068 199.442 152.791 201.224 152.527 203.963ZM176.371 197.264H177.13V199.904H175.777C172.246 199.904 171.289 202.841 171.289 205.514V214.094H168.583V197.264H170.926L171.289 199.805C172.081 198.518 173.368 197.264 176.371 197.264ZM187.957 197.066C192.61 197.066 196.042 200.201 196.042 205.679C196.042 210.827 192.61 214.292 187.957 214.292C185.119 214.292 183.205 213.137 182.182 211.52V220.694H179.476V197.264H181.819L182.182 199.97C183.304 198.419 185.119 197.066 187.957 197.066ZM187.693 211.883C191.026 211.883 193.27 209.342 193.27 205.679C193.27 202.016 191.026 199.475 187.693 199.475C184.393 199.475 182.149 202.016 182.149 205.613C182.149 209.309 184.393 211.883 187.693 211.883ZM206.922 197.264H207.681V199.904H206.328C202.797 199.904 201.84 202.841 201.84 205.514V214.094H199.134V197.264H201.477L201.84 199.805C202.632 198.518 203.919 197.264 206.922 197.264ZM211.413 194.426C210.423 194.426 209.664 193.7 209.664 192.677C209.664 191.654 210.423 190.928 211.413 190.928C212.403 190.928 213.162 191.654 213.162 192.677C213.162 193.7 212.403 194.426 211.413 194.426ZM210.027 214.094V197.264H212.733V214.094H210.027ZM215.747 208.55H218.519C218.618 210.53 220.367 211.982 223.172 211.982C225.548 211.982 227.231 210.959 227.231 209.408C227.231 207.296 225.383 207.131 222.875 206.834C219.113 206.372 216.11 205.613 216.11 202.115C216.11 199.046 218.915 197.033 222.71 197.066C226.538 197.099 229.31 198.881 229.574 202.379H226.802C226.604 200.663 225.02 199.376 222.71 199.376C220.367 199.376 218.783 200.366 218.783 201.917C218.783 203.765 220.565 203.996 223.007 204.293C226.835 204.755 229.904 205.481 229.904 209.21C229.904 212.345 226.901 214.292 223.172 214.292C218.816 214.292 215.813 212.246 215.747 208.55ZM240.663 214.292C235.614 214.292 232.314 210.827 232.314 205.679C232.314 200.564 235.548 197.066 240.3 197.066C245.052 197.066 248.154 200.069 248.286 205.052C248.286 205.415 248.253 205.811 248.22 206.207H235.152V206.438C235.251 209.639 237.264 211.883 240.465 211.883C242.841 211.883 244.689 210.629 245.25 208.451H247.989C247.329 211.817 244.557 214.292 240.663 214.292ZM235.317 203.963H245.382C245.118 201.059 243.138 199.442 240.333 199.442C237.858 199.442 235.581 201.224 235.317 203.963ZM262.359 205.844H251.37V203.567H262.359V205.844ZM279.496 200.168L279.859 197.264H282.202V213.269C282.202 218.12 279.628 220.892 273.853 220.892C269.563 220.892 266.56 218.879 266.131 215.183H268.903C269.365 217.295 271.246 218.483 274.051 218.483C277.582 218.483 279.496 216.833 279.496 213.17V211.19C278.374 213.104 276.559 214.292 273.721 214.292C269.068 214.292 265.636 211.157 265.636 205.679C265.636 200.531 269.068 197.066 273.721 197.066C276.559 197.066 278.44 198.287 279.496 200.168ZM273.985 211.883C277.285 211.883 279.529 209.342 279.529 205.745C279.529 202.049 277.285 199.475 273.985 199.475C270.652 199.475 268.408 202.016 268.408 205.679C268.408 209.342 270.652 211.883 273.985 211.883ZM293.676 197.264H294.435V199.904H293.082C289.551 199.904 288.594 202.841 288.594 205.514V214.094H285.888V197.264H288.231L288.594 199.805C289.386 198.518 290.673 197.264 293.676 197.264ZM311.084 211.619H311.942V214.094H310.457C308.213 214.094 307.454 213.137 307.421 211.487C306.365 213.005 304.682 214.292 301.778 214.292C298.082 214.292 295.574 212.444 295.574 209.375C295.574 206.009 297.917 204.128 302.339 204.128H307.289V202.973C307.289 200.795 305.738 199.475 303.098 199.475C300.722 199.475 299.138 200.597 298.808 202.313H296.102C296.498 199.013 299.171 197.066 303.23 197.066C307.52 197.066 309.995 199.211 309.995 203.138V210.497C309.995 211.388 310.325 211.619 311.084 211.619ZM307.289 207.23V206.405H302.075C299.666 206.405 298.313 207.296 298.313 209.21C298.313 210.86 299.732 211.982 301.976 211.982C305.342 211.982 307.289 210.035 307.289 207.23ZM327.094 199.838V190.994H329.8V214.094H327.457L327.094 211.388C325.972 212.939 324.157 214.292 321.319 214.292C316.666 214.292 313.234 211.157 313.234 205.679C313.234 200.531 316.666 197.066 321.319 197.066C324.157 197.066 326.071 198.221 327.094 199.838ZM321.583 211.883C324.883 211.883 327.127 209.342 327.127 205.745C327.127 202.049 324.883 199.475 321.583 199.475C318.25 199.475 316.006 202.016 316.006 205.679C316.006 209.342 318.25 211.883 321.583 211.883ZM341.242 214.292C336.193 214.292 332.893 210.827 332.893 205.679C332.893 200.564 336.127 197.066 340.879 197.066C345.631 197.066 348.733 200.069 348.865 205.052C348.865 205.415 348.832 205.811 348.799 206.207H335.731V206.438C335.83 209.639 337.843 211.883 341.044 211.883C343.42 211.883 345.268 210.629 345.829 208.451H348.568C347.908 211.817 345.136 214.292 341.242 214.292ZM335.896 203.963H345.961C345.697 201.059 343.717 199.442 340.912 199.442C338.437 199.442 336.16 201.224 335.896 203.963ZM168.841 244.55H171.613C171.712 246.53 173.461 247.982 176.266 247.982C178.642 247.982 180.325 246.959 180.325 245.408C180.325 243.296 178.477 243.131 175.969 242.834C172.207 242.372 169.204 241.613 169.204 238.115C169.204 235.046 172.009 233.033 175.804 233.066C179.632 233.099 182.404 234.881 182.668 238.379H179.896C179.698 236.663 178.114 235.376 175.804 235.376C173.461 235.376 171.877 236.366 171.877 237.917C171.877 239.765 173.659 239.996 176.101 240.293C179.929 240.755 182.998 241.481 182.998 245.21C182.998 248.345 179.995 250.292 176.266 250.292C171.91 250.292 168.907 248.246 168.841 244.55ZM193.757 250.292C188.708 250.292 185.408 246.827 185.408 241.679C185.408 236.564 188.642 233.066 193.394 233.066C198.146 233.066 201.248 236.069 201.38 241.052C201.38 241.415 201.347 241.811 201.314 242.207H188.246V242.438C188.345 245.639 190.358 247.883 193.559 247.883C195.935 247.883 197.783 246.629 198.344 244.451H201.083C200.423 247.817 197.651 250.292 193.757 250.292ZM188.411 239.963H198.476C198.212 237.059 196.232 235.442 193.427 235.442C190.952 235.442 188.675 237.224 188.411 239.963ZM212.025 250.292C207.108 250.292 203.874 246.959 203.874 241.712C203.874 236.564 207.207 233.066 212.091 233.066C216.216 233.066 218.823 235.376 219.516 239.072H216.678C216.183 236.828 214.533 235.475 212.058 235.475C208.824 235.475 206.646 238.049 206.646 241.712C206.646 245.375 208.824 247.883 212.058 247.883C214.467 247.883 216.117 246.497 216.645 244.352H219.516C218.856 247.982 216.117 250.292 212.025 250.292ZM234.263 241.679V233.264H236.969V250.094H234.626L234.263 247.85C233.273 249.104 231.656 250.292 228.884 250.292C225.188 250.292 222.251 248.213 222.251 242.636V233.264H224.957V242.471C224.957 245.969 226.541 247.817 229.346 247.817C232.415 247.817 234.263 245.474 234.263 241.679ZM248.446 233.264H249.205V235.904H247.852C244.321 235.904 243.364 238.841 243.364 241.514V250.094H240.658V233.264H243.001L243.364 235.805C244.156 234.518 245.443 233.264 248.446 233.264ZM252.937 230.426C251.947 230.426 251.188 229.7 251.188 228.677C251.188 227.654 251.947 226.928 252.937 226.928C253.927 226.928 254.686 227.654 254.686 228.677C254.686 229.7 253.927 230.426 252.937 230.426ZM251.551 250.094V233.264H254.257V250.094H251.551ZM259.218 245.705V235.739H256.182V233.264H259.218V228.545H261.924V233.264H266.28V235.739H261.924V245.672C261.924 247.091 262.419 247.619 263.871 247.619H266.544V250.094H263.607C260.373 250.094 259.218 248.675 259.218 245.705ZM273.773 250.193L267.206 233.264H270.077L275.258 246.695L280.274 233.264H283.145L275.39 252.932C274.334 255.638 273.707 256.694 271.331 256.694H268.097V254.219H270.506C272.057 254.219 272.321 253.823 272.948 252.239L273.773 250.193Z" fill="#333333"/>
<path d="M68.0721 281.094V268.494H72.9141C75.4341 268.494 77.0901 270.006 77.0901 272.364C77.0901 274.722 75.4341 276.252 72.9141 276.252H69.6381V281.094H68.0721ZM72.7881 269.934H69.6381V274.812H72.7701C74.4261 274.812 75.4881 273.858 75.4881 272.364C75.4881 270.87 74.4441 269.934 72.7881 269.934ZM82.7916 271.914H83.2056V273.354H82.4676C80.5416 273.354 80.0196 274.956 80.0196 276.414V281.094H78.5436V271.914H79.8216L80.0196 273.3C80.4516 272.598 81.1536 271.914 82.7916 271.914ZM88.1877 281.202C85.5057 281.202 83.6337 279.294 83.6337 276.504C83.6337 273.714 85.5057 271.806 88.1877 271.806C90.8697 271.806 92.7417 273.714 92.7417 276.504C92.7417 279.294 90.8697 281.202 88.1877 281.202ZM88.1877 279.888C90.0057 279.888 91.2297 278.466 91.2297 276.504C91.2297 274.542 90.0057 273.12 88.1877 273.12C86.3697 273.12 85.1457 274.542 85.1457 276.504C85.1457 278.466 86.3697 279.888 88.1877 279.888ZM95.0128 278.7V273.264H93.3568V271.914H95.0128V269.34H96.4888V271.914H98.8648V273.264H96.4888V278.682C96.4888 279.456 96.7588 279.744 97.5508 279.744H99.0088V281.094H97.4068C95.6428 281.094 95.0128 280.32 95.0128 278.7ZM104.289 281.202C101.535 281.202 99.7353 279.312 99.7353 276.504C99.7353 273.714 101.499 271.806 104.091 271.806C106.683 271.806 108.375 273.444 108.447 276.162C108.447 276.36 108.429 276.576 108.411 276.792H101.283V276.918C101.337 278.664 102.435 279.888 104.181 279.888C105.477 279.888 106.485 279.204 106.791 278.016H108.285C107.925 279.852 106.413 281.202 104.289 281.202ZM101.373 275.568H106.863C106.719 273.984 105.639 273.102 104.109 273.102C102.759 273.102 101.517 274.074 101.373 275.568ZM114.254 281.202C111.572 281.202 109.808 279.384 109.808 276.522C109.808 273.714 111.626 271.806 114.29 271.806C116.54 271.806 117.962 273.066 118.34 275.082H116.792C116.522 273.858 115.622 273.12 114.272 273.12C112.508 273.12 111.32 274.524 111.32 276.522C111.32 278.52 112.508 279.888 114.272 279.888C115.586 279.888 116.486 279.132 116.774 277.962H118.34C117.98 279.942 116.486 281.202 114.254 281.202ZM120.642 278.7V273.264H118.986V271.914H120.642V269.34H122.118V271.914H124.494V273.264H122.118V278.682C122.118 279.456 122.388 279.744 123.18 279.744H124.638V281.094H123.036C121.272 281.094 120.642 280.32 120.642 278.7ZM133.292 281.148L129.71 271.914H131.276L134.102 279.24L136.838 271.914H138.404L134.174 282.642C133.598 284.118 133.256 284.694 131.96 284.694H130.196V283.344H131.51C132.356 283.344 132.5 283.128 132.842 282.264L133.292 281.148ZM143.33 281.202C140.648 281.202 138.776 279.294 138.776 276.504C138.776 273.714 140.648 271.806 143.33 271.806C146.012 271.806 147.884 273.714 147.884 276.504C147.884 279.294 146.012 281.202 143.33 281.202ZM143.33 279.888C145.148 279.888 146.372 278.466 146.372 276.504C146.372 274.542 145.148 273.12 143.33 273.12C141.512 273.12 140.288 274.542 140.288 276.504C140.288 278.466 141.512 279.888 143.33 279.888ZM156.003 276.504V271.914H157.479V281.094H156.201L156.003 279.87C155.463 280.554 154.581 281.202 153.069 281.202C151.053 281.202 149.451 280.068 149.451 277.026V271.914H150.927V276.936C150.927 278.844 151.791 279.852 153.321 279.852C154.995 279.852 156.003 278.574 156.003 276.504ZM163.739 271.914H164.153V273.354H163.415C161.489 273.354 160.967 274.956 160.967 276.414V281.094H159.491V271.914H160.769L160.967 273.3C161.399 272.598 162.101 271.914 163.739 271.914ZM177.379 273.318V268.494H178.855V281.094H177.577L177.379 279.618C176.767 280.464 175.777 281.202 174.229 281.202C171.691 281.202 169.819 279.492 169.819 276.504C169.819 273.696 171.691 271.806 174.229 271.806C175.777 271.806 176.821 272.436 177.379 273.318ZM174.373 279.888C176.173 279.888 177.397 278.502 177.397 276.54C177.397 274.524 176.173 273.12 174.373 273.12C172.555 273.12 171.331 274.506 171.331 276.504C171.331 278.502 172.555 279.888 174.373 279.888ZM188.984 279.744H189.452V281.094H188.642C187.418 281.094 187.004 280.572 186.986 279.672C186.41 280.5 185.492 281.202 183.908 281.202C181.892 281.202 180.524 280.194 180.524 278.52C180.524 276.684 181.802 275.658 184.214 275.658H186.914V275.028C186.914 273.84 186.068 273.12 184.628 273.12C183.332 273.12 182.468 273.732 182.288 274.668H180.812C181.028 272.868 182.486 271.806 184.7 271.806C187.04 271.806 188.39 272.976 188.39 275.118V279.132C188.39 279.618 188.57 279.744 188.984 279.744ZM186.914 277.35V276.9H184.07C182.756 276.9 182.018 277.386 182.018 278.43C182.018 279.33 182.792 279.942 184.016 279.942C185.852 279.942 186.914 278.88 186.914 277.35ZM191.271 278.7V273.264H189.615V271.914H191.271V269.34H192.747V271.914H195.123V273.264H192.747V278.682C192.747 279.456 193.017 279.744 193.809 279.744H195.267V281.094H193.665C191.901 281.094 191.271 280.32 191.271 278.7ZM204.523 279.744H204.991V281.094H204.181C202.957 281.094 202.543 280.572 202.525 279.672C201.949 280.5 201.031 281.202 199.447 281.202C197.431 281.202 196.063 280.194 196.063 278.52C196.063 276.684 197.341 275.658 199.753 275.658H202.453V275.028C202.453 273.84 201.607 273.12 200.167 273.12C198.871 273.12 198.007 273.732 197.827 274.668H196.351C196.567 272.868 198.025 271.806 200.239 271.806C202.579 271.806 203.929 272.976 203.929 275.118V279.132C203.929 279.618 204.109 279.744 204.523 279.744ZM202.453 277.35V276.9H199.609C198.295 276.9 197.557 277.386 197.557 278.43C197.557 279.33 198.331 279.942 199.555 279.942C201.391 279.942 202.453 278.88 202.453 277.35ZM212.943 281.094L209.973 271.914H211.521L213.807 279.384L216.219 271.914H217.587L219.873 279.384L222.267 271.914H223.761L220.701 281.094H219.081L216.867 274.272L214.563 281.094H212.943ZM225.673 270.366C225.133 270.366 224.719 269.97 224.719 269.412C224.719 268.854 225.133 268.458 225.673 268.458C226.213 268.458 226.627 268.854 226.627 269.412C226.627 269.97 226.213 270.366 225.673 270.366ZM224.917 281.094V271.914H226.393V281.094H224.917ZM229.099 278.7V273.264H227.443V271.914H229.099V269.34H230.575V271.914H232.951V273.264H230.575V278.682C230.575 279.456 230.845 279.744 231.637 279.744H233.095V281.094H231.493C229.729 281.094 229.099 280.32 229.099 278.7ZM238.874 271.806C240.926 271.806 242.6 272.94 242.6 275.982V281.094H241.124V276.072C241.124 274.164 240.206 273.156 238.622 273.156C236.912 273.156 235.85 274.434 235.85 276.504V281.094H234.374V268.494H235.85V273.426C236.39 272.562 237.326 271.806 238.874 271.806ZM249.408 281.094V268.494H254.232C256.752 268.494 258.426 270.006 258.426 272.364C258.426 274.128 257.364 275.496 255.744 275.946L258.57 281.094H256.806L254.142 276.252H250.974V281.094H249.408ZM254.124 269.934H250.974V274.812H254.106C255.762 274.812 256.824 273.84 256.824 272.364C256.824 270.888 255.762 269.934 254.124 269.934ZM260.412 281.094V268.494H264.876C267.558 268.494 269.052 269.79 269.052 271.824C269.052 273.264 268.26 274.146 267.072 274.56C268.404 274.812 269.574 275.676 269.574 277.494C269.574 279.726 267.99 281.094 265.002 281.094H260.412ZM264.948 269.916H261.978V273.966H264.948C266.568 273.966 267.486 273.21 267.486 271.932C267.486 270.672 266.586 269.916 264.948 269.916ZM265.002 275.37H261.978V279.672H265.002C266.946 279.672 267.972 278.862 267.972 277.566C267.972 276.144 266.874 275.37 265.002 275.37ZM271.729 281.094H270.109L274.915 268.494H276.769L281.557 281.094H279.883L278.551 277.692H273.061L271.729 281.094ZM275.797 270.204L273.529 276.27H278.083L275.797 270.204ZM287.855 281.202C284.237 281.202 281.969 278.646 281.969 274.794C281.969 270.978 284.327 268.386 287.981 268.386C290.771 268.386 292.805 270.006 293.273 272.616H291.617C291.131 270.87 289.799 269.826 287.909 269.826C285.263 269.826 283.571 271.878 283.571 274.794C283.571 277.692 285.191 279.762 287.837 279.762C289.781 279.762 291.131 278.736 291.599 276.972H293.255C292.787 279.582 290.699 281.202 287.855 281.202ZM294.999 279.204C295.881 279.204 296.421 280.05 296.421 281.04C296.421 282.57 295.467 283.488 293.883 283.524V282.678C295.035 282.66 295.395 281.85 295.395 281.238C295.395 281.148 295.395 281.076 295.377 281.004C295.233 281.148 294.981 281.22 294.765 281.22C294.225 281.22 293.811 280.896 293.811 280.248C293.811 279.654 294.243 279.204 294.999 279.204ZM302.465 276.972H304.085C304.211 278.664 305.525 279.78 307.451 279.78C309.143 279.78 310.349 279.006 310.349 277.638C310.349 276.072 308.801 275.748 306.893 275.424C304.859 275.082 302.771 274.416 302.771 271.968C302.771 269.826 304.517 268.386 307.073 268.386C309.881 268.386 311.609 269.952 311.753 272.22H310.133C309.953 270.762 308.783 269.808 307.073 269.808C305.435 269.808 304.337 270.528 304.337 271.878C304.337 273.39 305.867 273.696 307.757 274.02C309.809 274.362 311.915 275.046 311.915 277.494C311.915 279.672 310.079 281.202 307.433 281.202C304.355 281.202 302.555 279.456 302.465 276.972ZM313.17 276.972H314.79C314.916 278.664 316.23 279.78 318.156 279.78C319.848 279.78 321.054 279.006 321.054 277.638C321.054 276.072 319.506 275.748 317.598 275.424C315.564 275.082 313.476 274.416 313.476 271.968C313.476 269.826 315.222 268.386 317.778 268.386C320.586 268.386 322.314 269.952 322.458 272.22H320.838C320.658 270.762 319.488 269.808 317.778 269.808C316.14 269.808 315.042 270.528 315.042 271.878C315.042 273.39 316.572 273.696 318.462 274.02C320.514 274.362 322.62 275.046 322.62 277.494C322.62 279.672 320.784 281.202 318.138 281.202C315.06 281.202 313.26 279.456 313.17 276.972ZM336.163 274.794C336.163 278.502 333.697 281.202 330.151 281.202C326.605 281.202 324.139 278.502 324.139 274.794C324.139 271.086 326.605 268.386 330.151 268.386C333.697 268.386 336.163 271.086 336.163 274.794ZM325.741 274.794C325.741 277.692 327.523 279.762 330.151 279.762C332.779 279.762 334.561 277.692 334.561 274.794C334.561 271.896 332.779 269.826 330.151 269.826C327.523 269.826 325.741 271.896 325.741 274.794ZM337.591 279.204C338.473 279.204 339.013 280.05 339.013 281.04C339.013 282.57 338.059 283.488 336.475 283.524V282.678C337.627 282.66 337.987 281.85 337.987 281.238C337.987 281.148 337.987 281.076 337.969 281.004C337.825 281.148 337.573 281.22 337.357 281.22C336.817 281.22 336.403 280.896 336.403 280.248C336.403 279.654 336.835 279.204 337.591 279.204ZM353.462 279.744H353.93V281.094H353.12C351.896 281.094 351.482 280.572 351.464 279.672C350.888 280.5 349.97 281.202 348.386 281.202C346.37 281.202 345.002 280.194 345.002 278.52C345.002 276.684 346.28 275.658 348.692 275.658H351.392V275.028C351.392 273.84 350.546 273.12 349.106 273.12C347.81 273.12 346.946 273.732 346.766 274.668H345.29C345.506 272.868 346.964 271.806 349.178 271.806C351.518 271.806 352.868 272.976 352.868 275.118V279.132C352.868 279.618 353.048 279.744 353.462 279.744ZM351.392 277.35V276.9H348.548C347.234 276.9 346.496 277.386 346.496 278.43C346.496 279.33 347.27 279.942 348.494 279.942C350.33 279.942 351.392 278.88 351.392 277.35ZM361.491 276.504V271.914H362.967V281.094H361.689L361.491 279.87C360.951 280.554 360.069 281.202 358.557 281.202C356.541 281.202 354.939 280.068 354.939 277.026V271.914H356.415V276.936C356.415 278.844 357.279 279.852 358.809 279.852C360.483 279.852 361.491 278.574 361.491 276.504ZM372.215 273.318V268.494H373.691V281.094H372.413L372.215 279.618C371.603 280.464 370.613 281.202 369.065 281.202C366.527 281.202 364.655 279.492 364.655 276.504C364.655 273.696 366.527 271.806 369.065 271.806C370.613 271.806 371.657 272.436 372.215 273.318ZM369.209 279.888C371.009 279.888 372.233 278.502 372.233 276.54C372.233 274.524 371.009 273.12 369.209 273.12C367.391 273.12 366.167 274.506 366.167 276.504C366.167 278.502 367.391 279.888 369.209 279.888ZM376.458 270.366C375.918 270.366 375.504 269.97 375.504 269.412C375.504 268.854 375.918 268.458 376.458 268.458C376.998 268.458 377.412 268.854 377.412 269.412C377.412 269.97 376.998 270.366 376.458 270.366ZM375.702 281.094V271.914H377.178V281.094H375.702ZM379.884 278.7V273.264H378.228V271.914H379.884V269.34H381.36V271.914H383.736V273.264H381.36V278.682C381.36 279.456 381.63 279.744 382.422 279.744H383.88V281.094H382.278C380.514 281.094 379.884 280.32 379.884 278.7ZM143.398 304.094V291.494H144.874V304.094H143.398ZM151.126 304.202C148.444 304.202 146.572 302.294 146.572 299.504C146.572 296.714 148.444 294.806 151.126 294.806C153.808 294.806 155.68 296.714 155.68 299.504C155.68 302.294 153.808 304.202 151.126 304.202ZM151.126 302.888C152.944 302.888 154.168 301.466 154.168 299.504C154.168 297.542 152.944 296.12 151.126 296.12C149.308 296.12 148.084 297.542 148.084 299.504C148.084 301.466 149.308 302.888 151.126 302.888ZM164.609 296.498L164.807 294.914H166.085V303.644C166.085 306.29 164.681 307.802 161.531 307.802C159.191 307.802 157.553 306.704 157.319 304.688H158.831C159.083 305.84 160.109 306.488 161.639 306.488C163.565 306.488 164.609 305.588 164.609 303.59V302.51C163.997 303.554 163.007 304.202 161.459 304.202C158.921 304.202 157.049 302.492 157.049 299.504C157.049 296.696 158.921 294.806 161.459 294.806C163.007 294.806 164.033 295.472 164.609 296.498ZM161.603 302.888C163.403 302.888 164.627 301.502 164.627 299.54C164.627 297.524 163.403 296.12 161.603 296.12C159.785 296.12 158.561 297.506 158.561 299.504C158.561 301.502 159.785 302.888 161.603 302.888ZM167.717 301.07H169.229C169.283 302.15 170.237 302.942 171.767 302.942C173.063 302.942 173.981 302.384 173.981 301.538C173.981 300.386 172.973 300.296 171.605 300.134C169.553 299.882 167.915 299.468 167.915 297.56C167.915 295.886 169.445 294.788 171.515 294.806C173.603 294.824 175.115 295.796 175.259 297.704H173.747C173.639 296.768 172.775 296.066 171.515 296.066C170.237 296.066 169.373 296.606 169.373 297.452C169.373 298.46 170.345 298.586 171.677 298.748C173.765 299 175.439 299.396 175.439 301.43C175.439 303.14 173.801 304.202 171.767 304.202C169.391 304.202 167.753 303.086 167.717 301.07ZM177.603 302.204C178.485 302.204 179.025 303.05 179.025 304.04C179.025 305.57 178.071 306.488 176.487 306.524V305.678C177.639 305.66 177.999 304.85 177.999 304.238C177.999 304.148 177.999 304.076 177.981 304.004C177.837 304.148 177.585 304.22 177.369 304.22C176.829 304.22 176.415 303.896 176.415 303.248C176.415 302.654 176.847 302.204 177.603 302.204ZM193.475 302.744H193.943V304.094H193.133C191.909 304.094 191.495 303.572 191.477 302.672C190.901 303.5 189.983 304.202 188.399 304.202C186.383 304.202 185.015 303.194 185.015 301.52C185.015 299.684 186.293 298.658 188.705 298.658H191.405V298.028C191.405 296.84 190.559 296.12 189.119 296.12C187.823 296.12 186.959 296.732 186.779 297.668H185.303C185.519 295.868 186.977 294.806 189.191 294.806C191.531 294.806 192.881 295.976 192.881 298.118V302.132C192.881 302.618 193.061 302.744 193.475 302.744ZM191.405 300.35V299.9H188.561C187.247 299.9 186.509 300.386 186.509 301.43C186.509 302.33 187.283 302.942 188.507 302.942C190.343 302.942 191.405 301.88 191.405 300.35ZM199.578 294.806C201.648 294.806 203.286 295.94 203.286 298.982V304.094H201.81V299.072C201.81 297.164 200.928 296.156 199.326 296.156C197.598 296.156 196.554 297.434 196.554 299.504V304.094H195.078V294.914H196.356L196.554 296.156C197.094 295.454 198.03 294.806 199.578 294.806ZM212.298 296.318V291.494H213.774V304.094H212.496L212.298 302.618C211.686 303.464 210.696 304.202 209.148 304.202C206.61 304.202 204.738 302.492 204.738 299.504C204.738 296.696 206.61 294.806 209.148 294.806C210.696 294.806 211.74 295.436 212.298 296.318ZM209.292 302.888C211.092 302.888 212.316 301.502 212.316 299.54C212.316 297.524 211.092 296.12 209.292 296.12C207.474 296.12 206.25 297.506 206.25 299.504C206.25 301.502 207.474 302.888 209.292 302.888ZM224.726 304.202C221.972 304.202 220.172 302.312 220.172 299.504C220.172 296.714 221.936 294.806 224.528 294.806C227.12 294.806 228.812 296.444 228.884 299.162C228.884 299.36 228.866 299.576 228.848 299.792H221.72V299.918C221.774 301.664 222.872 302.888 224.618 302.888C225.914 302.888 226.922 302.204 227.228 301.016H228.722C228.362 302.852 226.85 304.202 224.726 304.202ZM221.81 298.568H227.3C227.156 296.984 226.076 296.102 224.546 296.102C223.196 296.102 221.954 297.074 221.81 298.568ZM235.068 294.806C237.138 294.806 238.776 295.94 238.776 298.982V304.094H237.3V299.072C237.3 297.164 236.418 296.156 234.816 296.156C233.088 296.156 232.044 297.434 232.044 299.504V304.094H230.568V294.914H231.846L232.044 296.156C232.584 295.454 233.52 294.806 235.068 294.806ZM244.674 304.202C241.992 304.202 240.228 302.384 240.228 299.522C240.228 296.714 242.046 294.806 244.71 294.806C246.96 294.806 248.382 296.066 248.76 298.082H247.212C246.942 296.858 246.042 296.12 244.692 296.12C242.928 296.12 241.74 297.524 241.74 299.522C241.74 301.52 242.928 302.888 244.692 302.888C246.006 302.888 246.906 302.132 247.194 300.962H248.76C248.4 302.942 246.906 304.202 244.674 304.202ZM254.627 294.914H255.041V296.354H254.303C252.377 296.354 251.855 297.956 251.855 299.414V304.094H250.379V294.914H251.657L251.855 296.3C252.287 295.598 252.989 294.914 254.627 294.914ZM259.054 304.148L255.472 294.914H257.038L259.864 302.24L262.6 294.914H264.166L259.936 305.642C259.36 307.118 259.018 307.694 257.722 307.694H255.958V306.344H257.272C258.118 306.344 258.262 306.128 258.604 305.264L259.054 304.148ZM269.893 294.806C272.431 294.806 274.303 296.516 274.303 299.504C274.303 302.312 272.431 304.202 269.893 304.202C268.345 304.202 267.301 303.572 266.743 302.69V307.694H265.267V294.914H266.545L266.743 296.39C267.355 295.544 268.345 294.806 269.893 294.806ZM269.749 302.888C271.567 302.888 272.791 301.502 272.791 299.504C272.791 297.506 271.567 296.12 269.749 296.12C267.949 296.12 266.725 297.506 266.725 299.468C266.725 301.484 267.949 302.888 269.749 302.888ZM276.568 301.7V296.264H274.912V294.914H276.568V292.34H278.044V294.914H280.42V296.264H278.044V301.682C278.044 302.456 278.314 302.744 279.106 302.744H280.564V304.094H278.962C277.198 304.094 276.568 303.32 276.568 301.7ZM282.599 293.366C282.059 293.366 281.645 292.97 281.645 292.412C281.645 291.854 282.059 291.458 282.599 291.458C283.139 291.458 283.553 291.854 283.553 292.412C283.553 292.97 283.139 293.366 282.599 293.366ZM281.843 304.094V294.914H283.319V304.094H281.843ZM289.571 304.202C286.889 304.202 285.017 302.294 285.017 299.504C285.017 296.714 286.889 294.806 289.571 294.806C292.253 294.806 294.125 296.714 294.125 299.504C294.125 302.294 292.253 304.202 289.571 304.202ZM289.571 302.888C291.389 302.888 292.613 301.466 292.613 299.504C292.613 297.542 291.389 296.12 289.571 296.12C287.753 296.12 286.529 297.542 286.529 299.504C286.529 301.466 287.753 302.888 289.571 302.888ZM300.318 294.806C302.388 294.806 304.026 295.94 304.026 298.982V304.094H302.55V299.072C302.55 297.164 301.668 296.156 300.066 296.156C298.338 296.156 297.294 297.434 297.294 299.504V304.094H295.818V294.914H297.096L297.294 296.156C297.834 295.454 298.77 294.806 300.318 294.806ZM305.728 303.194C305.728 302.582 306.16 302.186 306.754 302.186C307.348 302.186 307.78 302.582 307.78 303.194C307.78 303.806 307.348 304.202 306.754 304.202C306.16 304.202 305.728 303.806 305.728 303.194Z" fill="#7E7E7E"/>
<path d="M225.451 169.461L202.977 146.931L225.441 155.272L248.021 146.961L225.451 169.461Z" fill="#333333"/>
<path d="M179.008 122.89L201.538 100.417L193.197 122.881L201.508 145.461L179.008 122.89Z" fill="#333333"/>
<path d="M225.551 76.4221L248.025 98.9518L225.561 90.6108L202.98 98.9219L225.551 76.4221Z" fill="#333333"/>
<path d="M271.996 122.993L249.466 145.466L257.807 123.002L249.496 100.422L271.996 122.993Z" fill="#333333"/>
</svg>
